<svg xmlns="http://www.w3.org/2000/svg" width="367.5" height="272.95" viewBox="0 0 367.5 272.95"><ellipse cx="47.388" cy="6.15" rx="47.388" ry="6.15" transform="translate(272.724 260.651)" fill="#3f3d56"/><rect width="143.063" height="89.25" transform="translate(0 9.695)" fill="#f2f2f2"/><rect width="143.063" height="89.25" transform="translate(9.023 1)" fill="none" stroke="#3f3d56" stroke-miterlimit="10" stroke-width="2"/><path d="M307.81,129.753A30.844,30.844,0,0,0,286,77.1v30.844Z" transform="translate(-205.281 -62.483)" fill="#3f3d56"/><path d="M222.839,77.1a30.847,30.847,0,0,0-14.755,57.935l14.755-27.091Z" transform="translate(-142.12 -62.483)" fill="#07f"/><path d="M277.6,192.91l-21.81-21.81-14.755,27.091A30.86,30.86,0,0,0,277.6,192.91Z" transform="translate(-175.068 -125.639)" fill="#575a89"/><rect width="5.906" height="5.906" transform="translate(14.438 71.711)" fill="#07f"/><rect width="5.906" height="5.906" transform="translate(22.969 71.711)" fill="#3f3d56"/><rect width="5.906" height="5.906" transform="translate(31.5 71.711)" fill="#575a89"/><rect width="24.281" height="0.984" transform="translate(116.484 73.023)" fill="#3f3d56"/><rect width="24.281" height="0.984" transform="translate(116.484 75.977)" fill="#3f3d56"/><rect width="24.281" height="0.984" transform="translate(116.484 78.93)" fill="#3f3d56"/><rect width="81.375" height="89.25" transform="translate(44.953 134.055)" fill="#f2f2f2"/><rect width="81.375" height="89.25" transform="translate(53.156 125.523)" fill="none" stroke="#3f3d56" stroke-miterlimit="10" stroke-width="2"/><rect width="4.387" height="4.387" transform="translate(57.422 204.705)" fill="#07f"/><rect width="4.387" height="4.387" transform="translate(63.759 204.705)" fill="#3f3d56"/><rect width="4.387" height="4.387" transform="translate(70.097 204.705)" fill="#575a89"/><rect width="17.063" height="0.692" transform="translate(106.641 206.61)" fill="#3f3d56"/><rect width="17.063" height="0.692" transform="translate(106.641 208.685)" fill="#3f3d56"/><rect width="17.063" height="0.692" transform="translate(106.641 210.76)" fill="#3f3d56"/><path d="M326,463.1v7.219a21.656,21.656,0,0,1,15.313,36.97l5.1,5.1A28.875,28.875,0,0,0,326,463.1Z" transform="translate(-232.156 -321.826)" fill="#3f3d56"/><path d="M310.642,602.873l-5.1-5.1a21.651,21.651,0,0,1-28.416,1.927l-4.369,5.749A28.874,28.874,0,0,0,310.642,602.873Z" transform="translate(-196.381 -412.307)" fill="#575a89"/><path d="M245.215,491.975a21.656,21.656,0,0,1,21.656-21.656V463.1A28.875,28.875,0,0,0,249.4,514.964l4.369-5.749a21.618,21.618,0,0,1-8.554-17.24Z" transform="translate(-173.028 -321.826)" fill="#07f"/><path d="M936.377,173.014s-1.339,9.946,2.1,11.093,2.486,9.946,2.486,9.946l-10.328,7.842-9.181.765-2.3-11.858,1.339-3.06s5.164-6.12,1.53-12.432S936.377,173.014,936.377,173.014Z" transform="translate(-630.688 -126.079)" fill="#ffb9b9"/><path d="M936.377,173.014s-1.339,9.946,2.1,11.093,2.486,9.946,2.486,9.946l-10.328,7.842-9.181.765-2.3-11.858,1.339-3.06s5.164-6.12,1.53-12.432S936.377,173.014,936.377,173.014Z" transform="translate(-630.688 -126.079)" opacity="0.1"/><path d="M861.8,306.708l-12.05,28.307s-9.372-5.355-14.918-4.782-12.432-6.12-12.432-6.12l6.885-33.28L842.1,255.45l17.787,11.285Z" transform="translate(-565.677 -182.312)" fill="#575a89"/><path d="M861.8,306.708l-12.05,28.307s-9.372-5.355-14.918-4.782-12.432-6.12-12.432-6.12l6.885-33.28L842.1,255.45l17.787,11.285Z" transform="translate(-565.677 -182.312)" opacity="0.1"/><path d="M942.563,740.575v9.18h-8.607l1.339-10.711Z" transform="translate(-627.502 -495.874)" fill="#575a89"/><path d="M1012.722,695.328l6.31,3.825-4.59,10.519-4.781-.574-4.59-6.5Z" transform="translate(-675.281 -466.502)" fill="#575a89"/><path d="M932.619,403.505,943.9,430.091s-4.017,29.454-3.825,31.941.383,3.443-.574,5.547a7.9,7.9,0,0,0-.765,5.929c.574,2.486.765,3.443.383,4.4s-3.06,40.356-4.4,43.034.765,7.077-.574,7.459-11.285-.574-11.858-2.869,1.913-7.842.574-9.563.191-63.691-1.721-67.9-22.951-8.033-22.951-8.033-1.913-12.241-.765-14.153,2.678-13.962,2.678-13.962Z" transform="translate(-615.837 -281.786)" fill="#2f2e41"/><path d="M968.1,795.88s5.355-6.312,9.946,0c0,0,.383,7.459,3.634,8.989s1.721,7.65-2.869,7.842-10.519.956-10.711-1.53.765-4.017-.956-4.782,0-5.164,0-5.164Z" transform="translate(-662.41 -543.528)" fill="#2f2e41"/><path d="M923.709,507.334s-.191,13.771-1.53,15.684-2.1,3.06-1.339,5.164,1.913,5.929,1.339,6.694.574,4.781.574,4.781,14.727,7.077,21.613,21.8c0,0,7.077,11.667,9.181,11.858s4.59-1.339,3.443,3.06-5.547,10.137-8.8,9.563-5.737-6.12-5.737-6.12S917.016,554,914.339,553.237s-10.328-6.885-11.667-10.711-4.208-35.766-2.869-37.87,6.312-4.973,6.312-4.973Z" transform="translate(-617.446 -346.406)" fill="#2f2e41"/><path d="M1059.537,727.6s11.858.382,12.05,3.252-4.973,19.891-4.208,23.908-5.929,13.2-10.328,11.285-.956-11.858-.956-11.858-4.4-13.58-3.634-13.771,8.415-2.486,8.033-4.781S1059.537,727.6,1059.537,727.6Z" transform="translate(-720.187 -499.535)" fill="#2f2e41"/><circle cx="11.858" cy="11.858" r="11.858" transform="translate(284.937 33.451)" fill="#ffb9b9"/><path d="M912.807,215.642s-6.5,6.885-11.285,5.738-7.268-9.372-7.268-9.372l-8.607-1.53s-6.12,27.159-6.12,29.837,6.12,31.558,6.12,36.722-4.973,8.224,2.678,8.033,4.016-2.678,15.11-2.869,12.815,2.3,15.11-1.721a32,32,0,0,1,5.738-7.077l-4.016-14.153-.576-39.974s-4.9-9.563-7.138-8.8C912.554,210.478,913.763,214.685,912.807,215.642Z" transform="translate(-604.057 -152.066)" fill="#07f"/><path d="M970.371,205.411s10.2,1.118,13.066,3.222,10.9,3.634,10.711,5.164-9.372,23.334-9.372,23.334-4.208,17.214-.574,21.23,17.214,47.816,14.919,51.45-9.563-11.093-9.563-11.093-9.754-31.558-15.11-36.914-5.738-34.236-5.738-35.575S970.371,205.411,970.371,205.411Z" transform="translate(-663.977 -148.692)" fill="#575a89"/><path d="M849.094,205.462s-12.565-4.735-16.964-2.822a30.809,30.809,0,0,1-7.077,2.3l-1.53,18.744s-.574,26.968-5.547,33.471-8.224,33.662-7.459,36.34-1.339,7.268,1.913,6.12,12.241-27.542,12.241-27.542,0-15.11,5.355-19.318,14.154-21.613,14.536-25.82,4.016-15.875,4.016-15.875Z" transform="translate(-557.616 -146.524)" fill="#575a89"/><path d="M1013.7,387.469s-5.739,10.711-6.5,12.623-6.12,14.918-13.771,12.05,7.459-16.831,7.459-16.831l3.443-11.667S1013.318,381.731,1013.7,387.469Z" transform="translate(-679.129 -268.236)" fill="#ffb9b9"/><path d="M787.815,207.941H785.9a4.4,4.4,0,0,0-4.208-.574c-2.3.956-7.651-.383-7.651.191s-5.929-1.721-8.416-.574-11.476,1.53-11.476,1.53-3.634,9.181-1.148,10.9,6.12.383,7.842,1.721,4.973-.191,6.12,1.53,5.355,4.782,6.312,2.869-.956-3.634,3.06-1.53,10.328,2.1,10.328,2.1Z" transform="translate(-518.466 -149.53)" fill="#575a89"/><path d="M922.392,120.834a12.757,12.757,0,0,0-4.9.306,6.715,6.715,0,0,1-4.791-.553,7.576,7.576,0,0,1-2.226-2.843A3.272,3.272,0,0,1,910,116.49a2.921,2.921,0,0,1,.965-2.093,15.826,15.826,0,0,1,9.732-4.679,16.814,16.814,0,0,1,8.886,1.085,11.626,11.626,0,0,1,6.233,6.254,17.764,17.764,0,0,1,.931,4.466,13.343,13.343,0,0,1,.063,3.382,14.5,14.5,0,0,1-.656,2.45l-1.8,5.441a3.585,3.585,0,0,1-.708,1.4,1.226,1.226,0,0,1-1.435.314,4.468,4.468,0,0,0,.065-1.8,1.523,1.523,0,0,0-1.2-1.212c-.664-.07-1.231.444-1.861.666a2.29,2.29,0,0,1-2.891-1.721,8.485,8.485,0,0,0-.168-1.872c-.276-.684-1.009-1.043-1.559-1.535a3.588,3.588,0,0,1-.985-3.729c.147-.453.563-.659.48-1.179C923.977,121.445,922.971,120.968,922.392,120.834Z" transform="translate(-624.527 -84.286)" fill="#2f2e41"/><rect width="81.375" height="89.25" transform="translate(166.359 78.273)" fill="#f2f2f2"/><rect width="81.375" height="89.25" transform="translate(174.563 69.742)" fill="none" stroke="#3f3d56" stroke-miterlimit="10" stroke-width="2"/><path d="M556,227.5v68.25h65.953" transform="translate(-373.563 -152.18)" fill="none" stroke="#3f3d56" stroke-miterlimit="10" stroke-width="2"/><rect width="14.766" height="23.625" transform="translate(186.047 119.617)" fill="#575a89"/><rect width="14.766" height="39.703" transform="translate(207.375 103.539)" fill="#3f3d56"/><rect width="14.766" height="58.406" transform="translate(228.703 84.836)" fill="#07f"/><rect width="4.387" height="4.387" transform="translate(181.453 148.923)" fill="#07f"/><rect width="4.387" height="4.387" transform="translate(187.791 148.923)" fill="#3f3d56"/><rect width="4.387" height="4.387" transform="translate(194.128 148.923)" fill="#575a89"/><rect width="17.063" height="0.692" transform="translate(230.672 150.829)" fill="#3f3d56"/><rect width="17.063" height="0.692" transform="translate(230.672 152.904)" fill="#3f3d56"/><rect width="17.063" height="0.692" transform="translate(230.672 154.979)" fill="#3f3d56"/><path d="M752.007,212.27a6.094,6.094,0,0,1,5.7,6.785c-.342,3.144-1.6,7.056-5.574,8.559-7.077,2.678-6.694-12.432-5.355-13.006C747.672,214.225,749.075,212.143,752.007,212.27Z" transform="translate(-514.344 -153.297)" fill="#ffb9b9"/><path d="M1019.455,227.854l2.1,1.022s4.59,9.372,4.781,10.711,3.252,6.312,2.1,7.651-2.869,4.782-1.721,6.12,3.825,6.694,3.825,8.607-2.869,7.077-.956,7.651,1.339,8.033.956,8.607-5.355,9.946-5.355,9.946-.956-10.711-10.328-6.312c0,0-.765-5.355,0-5.738s2.678-2.678,1.148-3.06-3.634-4.973-3.251-5.547,1.339-1.339.382-1.913-1.721-3.825-1.53-4.4-2.1-3.251-2.1-3.251Z" transform="translate(-691.389 -163.771)" fill="#575a89"/></svg>