<svg xmlns="http://www.w3.org/2000/svg" width="346" height="295.2" viewBox="0 0 346 295.2"><g transform="translate(0)"><path d="M971.278,475.734c-.056,4.4-.258,9.34-.71,14.54l12.688-15.821.089.247a39.575,39.575,0,0,0-4.565-10.119l.1.233Z" transform="translate(-659.633 -311.554)" fill="#57b894"/><path d="M971.424,462.164l7.365-10.578a20.847,20.847,0,0,0-7.55-7.166c-.151-.078-.3-.151-.453-.224C970.9,445.389,971.513,452.392,971.424,462.164Z" transform="translate(-659.77 -298.756)" fill="#57b894"/><path d="M976.31,565.651q.468-2.767.726-5.521L957.9,575.158l-.026-.133q-.432,1.626-.9,3.2l19.29-12.863Z" transform="translate(-651.099 -371.536)" fill="#57b894"/><path d="M965.328,522.572,982.453,506.7l.067.275a62.214,62.214,0,0,0-2.384-14.491l-12.93,16.122Q966.535,515.914,965.328,522.572Z" transform="translate(-656.344 -329.071)" fill="#57b894"/><path d="M923.208,496.2,900.3,473.438l.1-.278a51.947,51.947,0,0,0-4.637,9.387l26.068,24.723C922.452,503.405,922.9,499.673,923.208,496.2Z" transform="translate(-612.673 -316.939)" fill="#57b894"/><path d="M919,527.022q.263-1.416.493-2.813l-26.164-24.814.1-.28q-.649,1.732-1.218,3.575l.095-.281Z" transform="translate(-610.442 -333.233)" fill="#57b894"/><path d="M959.831,556.911l18.975-14.9.055.285a74.28,74.28,0,0,0,.224-10.013l-17.356,16.086Q960.9,552.8,959.831,556.911Z" transform="translate(-652.893 -354.053)" fill="#57b894"/><path d="M886.3,555.673l21.455,24.872a89.347,89.347,0,0,0,3.77-10.024L885.7,546.364a71.875,71.875,0,0,0,.476,9.609Z" transform="translate(-606.351 -362.895)" fill="#57b894"/><path d="M947.134,441.882l.174-.09c-4.5-2.081-9.219-1.557-13.615,1.072l14.092,16.99C947.878,449.28,947.144,441.986,947.134,441.882Z" transform="translate(-636.484 -296.443)" fill="#57b894"/><path d="M949.758,589.925a88.789,88.789,0,0,1-3.408,9.039l19.466-11.543.037.288a35.2,35.2,0,0,0,3.047-8.344q.381-1.71.677-3.425l-19.52,13.016C949.958,589.279,949.86,589.6,949.758,589.925Z" transform="translate(-644.43 -381.461)" fill="#57b894"/><path d="M932.036,464.831l-14.415-17.38.11-.266a29.959,29.959,0,0,0-9.112,9.439L931.34,479.2C931.783,474.062,931.981,469.185,932.036,464.831Z" transform="translate(-620.743 -300.633)" fill="#57b894"/><path d="M911.76,546.779a120.583,120.583,0,0,0,3.082-12.609L888.08,509.5q-.76,2.5-1.362,5.19a43.206,43.206,0,0,0-.945,7.809l25.969,24.3Z" transform="translate(-606.401 -339.75)" fill="#57b894"/><path d="M1013.087,674.958c-2.853,3.357-6.156,7.029-9.821,10.745l19.863-4.092-.089.247a39.577,39.577,0,0,0,2.938-10.7l-.071.243Z" transform="translate(-680.161 -441.235)" fill="#57b894"/><path d="M1042.172,641.981c-.066-.156-.136-.309-.206-.461-.674.99-4.667,6.776-10.969,14.245l12.419-3.449A20.878,20.878,0,0,0,1042.172,641.981Z" transform="translate(-697.569 -422.631)" fill="#57b894"/><path d="M947.612,754.365q-1.369.977-2.732,1.887l23.061,2.4-.152.254q2.125-1.833,4.081-3.789l-24.322-.63Z" transform="translate(-643.507 -493.473)" fill="#57b894"/><path d="M973.9,714.329l23.312-1.3-.123.254A62.221,62.221,0,0,0,1004.5,700.6l-20.242,4.17Q979.08,709.971,973.9,714.329Z" transform="translate(-661.728 -459.72)" fill="#57b894"/><path d="M953.638,742.055l24.119.624-.139.255a74.282,74.282,0,0,0,6.558-7.569l-23.628,1.319Q957.081,739.57,953.638,742.055Z" transform="translate(-649.005 -481.545)" fill="#57b894"/><path d="M831.051,652.475c.16-.182.323-.368.49-.562a61.826,61.826,0,0,0,14.013-4.9l-.348-17.3q.253-.678.487-1.366l.37,18.416a89.354,89.354,0,0,0,9.3-5.316l-4.09-32.029.507-.3,4.084,31.988.022,0a120.581,120.581,0,0,0,10.417-7.746l-4.258-31.5q.246-.2.493-.411l4.258,31.5q1.105-.923,2.174-1.852l-3.856-31.916q.245-.226.489-.455l3.858,31.942c2.943-2.58,5.664-5.172,8.12-7.646l-3.124-32.143.254-.151c-.879.285-1.77.608-2.668.962a45.529,45.529,0,0,0,4.264-6.58l-19.652,11.654a68.319,68.319,0,0,1-4.258,7.935c-.349.37-.7.744-1.039,1.129l.05.391q-.229.34-.46.675l-.066-.52c-.2.225-.389.455-.582.685a64.329,64.329,0,0,0,6-10.5L835,571.862c.268,2.294.625,4.6,1.047,6.879a39.077,39.077,0,0,0-7.1-7.7l.167.19-3.855,12.735c1.308,4.207,2.642,8.962,3.819,14.047l7.077-18.706q.08.424.164.847l-7.059,18.658q1.622,7.156,2.532,13.861l8.853-15.858q.1.325.205.646l-8.948,16.03q.581,4.474.837,8.713l10.995-16.394q.113.3.222.595L832.843,622.97l-.066-.118q.092,1.68.131,3.318l12.553-15.895q.125.309.232.57l-12.77,16.17c.006.339.013.679.015,1.015a88.775,88.775,0,0,1-.447,9.65l1.219-1.387q-.324.785-.63,1.548l-.693.789c-.055.478-.116.951-.179,1.421q-.355.915-.682,1.785.266-1.636.459-3.291l-27.887-16.9c8.033,17.5,22.194,33.762,23.1,34.794q.914-1.973,1.648-4.035c.166-.026.333-.053.5-.08-.057.165-.114.331-.173.495l-.261.044.226.049q-.523,1.445-1.117,2.823c.558-.563,1.394-1.433,2.406-2.56,6.406,1.245,23.591,3.7,37.838-2.224L845.7,647.393A62.443,62.443,0,0,1,831.051,652.475Zm14.028-29.109.5-.572.016.813-.5.572Z" transform="translate(-555.128 -378.385)" fill="#57b894"/><path d="M1041.195,627.707l.192.042c-2.141-4.476-6.107-7.079-11.17-7.859l.017,22.074C1037.048,633.88,1041.135,627.794,1041.195,627.707Z" transform="translate(-697.079 -409.052)" fill="#57b894"/><path d="M926.552,761.241a88.748,88.748,0,0,1-8.39,4.788l22.355,3.525-.155.245a35.193,35.193,0,0,0,7.669-4.483q1.384-1.074,2.706-2.206L927.4,760.685C927.118,760.871,926.834,761.059,926.552,761.241Z" transform="translate(-626.734 -497.44)" fill="#57b894"/><path d="M997.6,652.765c3.62-3.677,6.883-7.307,9.7-10.625l-.017-22.58.255-.134a29.96,29.96,0,0,0-13.038,1.458Z" transform="translate(-674.662 -408.628)" fill="#57b894"/><path d="M853.671,562.958a20.847,20.847,0,0,0-9.395-4.482c-.168-.028-.334-.051-.5-.073.476,1.1,3.224,7.569,6.16,16.891Z" transform="translate(-580.036 -370.453)" fill="#57b894"/><path d="M819.5,620.151l-28.821-14.569.009-.3a51.946,51.946,0,0,0-1.508,10.361L821.608,631.1C821,627.235,820.272,623.549,819.5,620.151Z" transform="translate(-545.76 -399.885)" fill="#57b894"/><path d="M821.581,649.716,789.028,634.2l.005-.3q-.082,1.848-.054,3.777l0-.3,33,15.155Q821.794,651.116,821.581,649.716Z" transform="translate(-545.632 -417.853)" fill="#57b894"/><path d="M826.482,696.855l-32.024-14.994a71.863,71.863,0,0,0,3.423,8.992l.022-.323L826,707.553a89.358,89.358,0,0,0,.487-10.7Z" transform="translate(-549.076 -447.956)" fill="#57b894"/><path d="M821.793,558.3l.138-.14c-4.927-.587-9.249,1.369-12.617,5.228l18.654,11.8C824.788,565.1,821.836,558.392,821.793,558.3Z" transform="translate(-558.402 -370.233)" fill="#57b894"/><path d="M818.222,585.255l-19.082-12.073.023-.287a29.959,29.959,0,0,0-5.748,11.793L822,599.138C820.835,594.112,819.515,589.413,818.222,585.255Z" transform="translate(-548.421 -379.55)" fill="#57b894"/><path d="M823.047,673a120.6,120.6,0,0,0-.966-12.945L789,644.866q.05,2.613.309,5.356a43.218,43.218,0,0,0,1.515,7.719l32.207,15.08Z" transform="translate(-545.651 -424.732)" fill="#57b894"/><path d="M643.73,313.964l-96.074-12.11c-4.354-36.221,2.224-71.583,13.456-106.749l96.074,12.11C642.689,241.715,638.434,277.323,643.73,313.964Z" transform="translate(-393.289 -142.383)" fill="#f2f2f2"/><rect width="59.177" height="6.358" transform="matrix(0.992, 0.125, -0.125, 0.992, 181.247, 65.504)" fill="#07f"/><rect width="80.206" height="3.179" transform="matrix(0.992, 0.125, -0.125, 0.992, 167.675, 79.321)" fill="#07f" opacity="0.3"/><rect width="80.206" height="3.179" transform="matrix(0.992, 0.125, -0.125, 0.992, 166.391, 89.51)" fill="#07f" opacity="0.3"/><rect width="80.206" height="3.179" transform="matrix(0.992, 0.125, -0.125, 0.992, 165.106, 99.7)" fill="#07f" opacity="0.3"/><rect width="80.206" height="3.179" transform="matrix(0.992, 0.125, -0.125, 0.992, 163.822, 109.89)" fill="#07f" opacity="0.3"/><rect width="80.206" height="3.179" transform="matrix(0.992, 0.125, -0.125, 0.992, 162.537, 120.079)" fill="#07f" opacity="0.3"/><rect width="80.206" height="3.179" transform="matrix(0.992, 0.125, -0.125, 0.992, 161.253, 130.269)" fill="#07f" opacity="0.3"/><rect width="80.206" height="3.179" transform="matrix(0.992, 0.125, -0.125, 0.992, 159.969, 140.459)" fill="#07f" opacity="0.3"/><path d="M534.23,189.362l-89.883-36.027c4.953-36.144,20.265-68.69,40.029-99.87l89.883,36.027C551.5,119.2,538.377,152.572,534.23,189.362Z" transform="translate(-329.285 -53.465)" fill="#e6e6e6"/><rect width="59.177" height="6.358" transform="translate(164.845 15.763) rotate(21.841)" fill="#07f"/><rect width="80.206" height="3.179" transform="translate(148.218 25.696) rotate(21.841)" fill="#07f" opacity="0.3"/><rect width="80.206" height="3.179" transform="translate(144.397 35.229) rotate(21.841)" fill="#07f" opacity="0.3"/><rect width="80.206" height="3.179" transform="translate(140.576 44.762) rotate(21.841)" fill="#07f" opacity="0.3"/><rect width="80.206" height="3.179" transform="translate(136.755 54.295) rotate(21.841)" fill="#07f" opacity="0.3"/><rect width="80.206" height="3.179" transform="translate(132.934 63.828) rotate(21.841)" fill="#07f" opacity="0.3"/><rect width="80.206" height="3.179" transform="translate(129.113 73.361) rotate(21.841)" fill="#07f" opacity="0.3"/><rect width="80.206" height="3.179" transform="translate(125.292 82.894) rotate(21.841)" fill="#07f" opacity="0.3"/><path d="M452.88,260.406H356.046c-8.85-35.392-6.746-71.3,0-107.594H452.88C442.811,188.854,443.043,224.714,452.88,260.406Z" transform="translate(-270.163 -115.833)" fill="#f2f2f2"/><rect width="59.177" height="6.358" transform="translate(100.799 47.983)" fill="#07f"/><rect width="80.206" height="3.179" transform="translate(89.061 63.389)" fill="#07f" opacity="0.3"/><rect width="80.206" height="3.179" transform="translate(89.061 73.659)" fill="#07f" opacity="0.3"/><rect width="80.206" height="3.179" transform="translate(89.061 83.93)" fill="#07f" opacity="0.3"/><rect width="80.206" height="3.179" transform="translate(89.061 94.2)" fill="#07f" opacity="0.3"/><rect width="80.206" height="3.179" transform="translate(89.061 104.47)" fill="#07f" opacity="0.3"/><rect width="80.206" height="3.179" transform="translate(89.061 114.74)" fill="#07f" opacity="0.3"/><rect width="80.206" height="3.179" transform="translate(89.061 125.011)" fill="#07f" opacity="0.3"/><path d="M352.127,337.2l-33.361-25.936a3.808,3.808,0,0,0-3.3-1.91H297.46a3.808,3.808,0,0,0-3.808,3.808V472.081A12.352,12.352,0,0,0,306,484.433H490.837a12.352,12.352,0,0,0,12.352-12.352V348.428A11.227,11.227,0,0,0,491.962,337.2Z" transform="translate(-234.682 -214.106)" fill="#3f3d56"/><rect width="33.526" height="11.734" transform="translate(228.695 159.948)" fill="#07f"/><path d="M135.228,778.845s153.334-87.691,338.492,0" transform="translate(-135.228 -484.373)" fill="#f2f2f2"/><path d="M219.846,301.6s1.646,8.722.494,9.38a20.005,20.005,0,0,0-2.633,1.975l2.962,4.114,7.076,1.481,6.747-6.254v-6.254s-1.975-3.127-1.646-5.1S219.846,301.6,219.846,301.6Z" transform="translate(-187.006 -208.364)" fill="#fbbebe"/><path d="M219.846,301.6s1.646,8.722.494,9.38a20.005,20.005,0,0,0-2.633,1.975l2.962,4.114,7.076,1.481,6.747-6.254v-6.254s-1.975-3.127-1.646-5.1S219.846,301.6,219.846,301.6Z" transform="translate(-187.006 -208.364)" opacity="0.1"/><path d="M181.372,344.183l-.987.494s-2.139.823-3.127,7.9-3.291,24.027-2.633,24.521.329,3.785.329,3.785l4.937-25.837Z" transform="translate(-159.887 -235.971)" fill="#2f2e41"/><path d="M212.355,233.662c-.151.314-.2.681-.345,1-.641,1.453-2.467,1.128-3.784,1.678a3.656,3.656,0,0,0-2.035,3.125c-.037.586.049,1.178,0,1.763-.1,1.08-.654,2.032-.853,3.093-.482,2.578.642,6.649,1.911,5.258.4-.439.9-.73,1.333-1.124,1.122-1.026,1.694-2.657,2.606-3.937a1.376,1.376,0,0,1,.463-.459c.666-.331,1.259.555,1.786,1.136a2.8,2.8,0,0,0,4.195-.08,2.462,2.462,0,0,1,.591-.6,1.26,1.26,0,0,1,.821-.081,5.392,5.392,0,0,1,3.288,1.958,9.946,9.946,0,0,0,1.335,1.589,1.319,1.319,0,0,0,1.771.059,4.2,4.2,0,0,1,1.314,3.415c0,1.306-.265,2.6-.2,3.907s.577,2.71,1.616,3.189a4.644,4.644,0,0,1,1.719-3.008,11.816,11.816,0,0,0,2.166-1.475c1.2-1.376.818-3.665.864-5.628.057-2.421.9-4.736,1.044-7.152a4.549,4.549,0,0,0-2.475-5.007l-5.649-3.624a2.411,2.411,0,0,0-.837-.4c-.832-.149-1.55.631-2.339.974a4.735,4.735,0,0,1-2.052.249c-2.193-.059-2.81.366-4.284-1.062a1.039,1.039,0,0,0-.89-.3C214.55,232.259,212.837,232.655,212.355,233.662Z" transform="translate(-179.167 -165.613)" fill="#2f2e41"/><path d="M86.131,716.92l3.456,7.57-6.747,2.3-3.456-1.81.823-8.064Z" transform="translate(-49.835 -450.065)" fill="#fbbebe"/><path d="M187.821,783.606s-5.431-3.291-6.418-2.139-8.887,9.545-8.887,9.545-12.178,6.583-2.8,7.57,24.685-5.76,24.685-5.76.823-8.887.165-9.051-3.456,1.481-4.772.987a5.9,5.9,0,0,1-1.975-1.152Z" transform="translate(-154.651 -510.333)" fill="#2f2e41"/><path d="M106.4,734.976v6.747l-8.886-1.975,1.975-6.912Z" transform="translate(-61.215 -460.056)" fill="#fbbebe"/><path d="M227.831,797.838s9.051-1.481,9.874,2.962,2.962,11.026.823,12.672-13.165,3.785-13.33.987,1.152-8.228,1.152-8.228.823-4.279.329-5.431S227.831,797.838,227.831,797.838Z" transform="translate(-191.7 -520.615)" fill="#2f2e41"/><path d="M177.423,499.641s-7.43,47.108-1.341,70.148,10.368,36.7,10.368,36.7,10.532-2.962,10.532-4.937-4.114-31.268-5.1-34.065-2.633-3.785-1.152-6.089,3.95-17.115,3.95-17.115,5.431,24.521,5.76,25.179-3.456,38.344-3.456,38.344,10.863,7.883,11.52,1.975c.165-1.481,7.406-53.978,7.406-54.636s2.962-51.016-1.81-53.484S177.423,499.641,177.423,499.641Z" transform="translate(-159.37 -333.543)" fill="#2f2e41"/><circle cx="11.191" cy="11.191" r="11.191" transform="translate(28.068 74.147)" fill="#fbbebe"/><path d="M201.869,323.733v-1.152l-3.291-5.431s-3.291.329-3.785,1.81-6.089,13.33-6.089,13.33l-5.924,53.155s16.292,3.95,18.761,1.152,11.849-63.688,11.849-63.688l1.316-7.405s-2.261-3.291-2.776-2.8-9.073,10.039-9.073,10.039l-.165,1.481Z" transform="translate(-165.079 -216.179)" fill="#07f"/><path d="M186.644,321.6s-3.044-.741-4.032,1.07-.987,2.469-1.975,3.127-6.747,3.62-7.076,4.772-7.406,37.521-7.406,37.521-3.456,10.861-1.81,18.267.494,8.887,3.95,9.545,3.95.658,3.95-.329,4.443-34.395,7.57-36.7,2.3-27.483,2.3-27.483,4.443-5.431,4.443-6.254S187.3,321.541,186.644,321.6Z" transform="translate(-153.227 -221.701)" fill="#2f2e41"/><path d="M227.441,324.932c.459.077,6.747-8.064,7.241-7.735s2.962,4.608,3.291,4.608,14.317,3.456,15.469,9.874-8.064,26.825-8.064,26.825-3.95,11.684-3.127,16.786a34.368,34.368,0,0,1-.329,11.684c-.329,1.317-1.481,2.8-1.152,3.456s-7.241-.823-10.368.987-17.115,3.127-16.292,1.152,1.317-9.709,3.62-17.938,8.228-27.647,7.241-28.964S226.453,324.767,227.441,324.932Z" transform="translate(-184.726 -219.023)" fill="#2f2e41"/><path d="M294.316,350.814l2.139,1.975s2.469,4.279,2.139,6.254,6.912,31.762,3.95,32.749-10.039,5.924-10.861,7.241a14.611,14.611,0,0,1-4.114,4.279c-1.317.658-2.633,1.81-3.456,1.152s-2.633-14.153-1.317-14.646,2.633-1.975,3.95-1.975a2.361,2.361,0,0,0,2.139-2.469c0-1.152-.987-8.064-.987-8.064l-2.139-16.292Z" transform="translate(-227.575 -240.133)" fill="#2f2e41"/><path d="M219.052,238.7c-.133.237-.18.515-.3.757-.567,1.1-2.182.853-3.346,1.268a2.787,2.787,0,0,0-1.8,2.363c-.033.443.043.89,0,1.333a22.543,22.543,0,0,1-.754,2.338c-.426,1.949.568,5.027,1.69,3.975.354-.332.8-.552,1.179-.85.992-.775,1.5-2.008,2.3-2.976a1.148,1.148,0,0,1,.409-.347c.589-.25,1.113.42,1.579.859a2.76,2.76,0,0,0,3.709-.061,2.041,2.041,0,0,1,.523-.456,1.289,1.289,0,0,1,.726-.061,4.975,4.975,0,0,1,2.908,1.48,7.954,7.954,0,0,0,1.18,1.2,1.316,1.316,0,0,0,1.566.044,2.951,2.951,0,0,1,1.162,2.582c0,.987-.234,1.968-.177,2.953a2.669,2.669,0,0,0,1.429,2.411,3.439,3.439,0,0,1,1.52-2.274,10.687,10.687,0,0,0,1.915-1.115c1.059-1.04.724-2.77.764-4.254.05-1.83.792-3.58.923-5.406a3.79,3.79,0,0,0-.607-2.613,4.885,4.885,0,0,0-1.582-1.172l-4.994-2.739a2.307,2.307,0,0,0-.74-.3c-.735-.113-1.371.477-2.068.737a4.853,4.853,0,0,1-1.815.188c-1.939-.045-2.485.277-3.788-.8a1.019,1.019,0,0,0-.787-.225C220.993,237.639,219.478,237.938,219.052,238.7Z" transform="translate(-183.89 -169.012)" fill="#2f2e41"/></g></svg>