<svg xmlns="http://www.w3.org/2000/svg" width="409.561" height="301.089" viewBox="0 0 409.561 301.089"><ellipse cx="68.057" cy="12.664" rx="68.057" ry="12.664" transform="translate(96.109 275.761)" fill="#f2f2f2"/><rect width="362.902" height="195.409" transform="translate(26.32 35.194)" fill="#f2f2f2"/><rect width="34.296" height="42.112" transform="translate(354.926 188.49)" fill="#3f3d56"/><path d="M1017.469,575.524c0,8.179-4.862,11.034-10.86,11.034s-10.858-2.855-10.858-11.034,10.86-18.583,10.86-18.583S1017.469,567.346,1017.469,575.524Z" transform="translate(-633.147 -363.749)" fill="#07f"/><path d="M928.911,512.808l.111-6.845,4.629-8.468-4.611,7.394.05-3.078,3.19-6.126L929.1,501h0l.09-5.535,3.416-4.878-3.4,4.007.056-10.15-.353,13.437.029-.554-3.473-5.316,3.417,6.38-.323,6.182-.01-.164-4-5.595,3.992,6.174-.04.773-.007.012,0,.063-.821,15.685h1.1l.132-8.1,3.982-6.159Z" transform="translate(-555.843 -291.249)" fill="#3f3d56"/><path d="M206.273,90.047a8.773,8.773,0,1,1,8.773-8.773A8.773,8.773,0,0,1,206.273,90.047Zm0-16.749a7.976,7.976,0,1,0,7.976,7.976,7.976,7.976,0,0,0-7.976-7.976Z" transform="translate(-153.234 -72.5)" fill="#3f3d56"/><circle cx="5.184" cy="5.184" r="5.184" transform="translate(0 46.26)" fill="#3f3d56"/><circle cx="5.184" cy="5.184" r="5.184" transform="translate(399.193 84.145)" fill="#3f3d56"/><rect width="264.799" height="2.393" transform="translate(75.571 75.073)" fill="#3f3d56"/><rect width="264.799" height="2.393" transform="translate(75.571 96.608)" fill="#3f3d56"/><rect width="264.799" height="2.393" transform="translate(75.571 118.143)" fill="#3f3d56"/><rect width="6.381" height="19.94" transform="translate(120.635 66.299)" fill="#07f"/><rect width="6.381" height="19.94" transform="translate(193.216 87.834)" fill="#07f"/><rect width="6.381" height="19.94" transform="translate(317.639 109.369)" fill="#07f"/><rect width="94.115" height="2.393" transform="translate(75.571 167.593)" fill="#3f3d56"/><rect width="47.058" height="2.393" transform="translate(75.571 176.367)" fill="#3f3d56"/><path d="M203.255,478.005H188.5V463.25h14.357v.8H189.3v13.16h13.16v-7.5h.8Z" transform="translate(-113.327 -278.509)" fill="#3f3d56"/><rect width="94.115" height="2.393" transform="translate(246.255 167.593)" fill="#3f3d56"/><rect width="30.308" height="2.393" transform="translate(246.255 176.367)" fill="#3f3d56"/><rect width="30.308" height="2.393" transform="translate(310.062 176.367)" fill="#3f3d56"/><path d="M717.755,550.505H703V535.75h14.755Zm-13.958-.8h13.16v-13.16H703.8Z" transform="translate(-457.144 -351.009)" fill="#3f3d56"/><path d="M362.239,325.546H351.768v-5.128h8.761l1.923,1.068Z" transform="translate(-211.485 -192.637)" fill="#575a89"/><path d="M332.478,685.536l.427,7.693,6.411-1.282-1.069-7.693Z" transform="translate(-199.888 -411.378)" fill="#ffb9b9"/><path d="M494.256,747.294s.214,6.411-.427,8.12,1.71,2.564,1.71,2.564h5.129l2.992.427V755.2s-3.419-5.342-3.419-8.334S494.256,747.294,494.256,747.294Z" transform="translate(-331.322 -477.196)" fill="#ffb9b9"/><path d="M417.791,774.252s4.274-2.019,5.77-.8,7.052,11.694,4.915,12.335c0,0-1.5,2.564-6.624.855s-5.129-3.633-5.129-3.633-1.5-1.282-1.5-1.71.641-4.274.641-4.274.474-3.218,1.2-3Z" transform="translate(-284.133 -493.683)" fill="#2f2e41"/><path d="M492.228,767.578s-.641-.641-1.068,0-2.778,8.761-.641,9.189,5.342,1.923,5.77,1.5a5.854,5.854,0,0,0,.855-1.5s3.419,1.5,4.488,2.778,13.89,4.06,13.462,0-6.838-7.479-6.838-7.479l-7.052-4.7s-2.778.214-3.419,1.5S492.655,769.928,492.228,767.578Z" transform="translate(-328.866 -490.214)" fill="#2f2e41"/><path d="M336.159,497.817s-2.351,2.992-1.923,3.205,9.83,2.351,14.958,1.068,15.813-1.068,16.454-2.564S374.2,479.44,374.2,479.44l-2.564-14.1-2.778-3.633-6.411-5.556-12.821,23.933Z" transform="translate(-235.409 -303.151)" fill="#575a89"/><path d="M336.159,497.817s-2.351,2.992-1.923,3.205,9.83,2.351,14.958,1.068,15.813-1.068,16.454-2.564S374.2,479.44,374.2,479.44l-2.564-14.1-2.778-3.633-6.411-5.556-12.821,23.933Z" transform="translate(-235.409 -303.151)" opacity="0.1"/><path d="M405.185,541.011s-2.992,10.685,0,25.429.214,17.95.855,18.591.855.427.855,1.068.641,3.633,0,4.7-.641,35.045,1.282,35.9,7.479,2.992,8.548,0,.214-24.574.641-25.643a16.033,16.033,0,0,0,.427-4.274c0-.641,1.282-7.907,1.5-9.83s.855-5.77.855-5.77-.427-15.172.855-19.66,1.71-4.915,1.71-4.915l10.257,26.711s-.855,2.778,0,3.633-.214.641.641,2.137,1.71,1.923,1.71,2.778-.855.855-.427,1.5a17.479,17.479,0,0,1,1.068,2.992l-1.068,2.564a79.71,79.71,0,0,0,1.5,8.548c.855,3.205.855,16.24,1.923,16.454s9.4,2.564,9.4-2.351-.641-26.284-.641-26.284a23.044,23.044,0,0,1-1.282-4.06c0-.855-.214-1.282.214-1.71a1.352,1.352,0,0,0,.214-1.923c-.641-.641-.427-1.5-.427-2.351a18.7,18.7,0,0,0-.427-3.419c-.214-.855-4.274-27.566-4.274-27.566s.855-3.205,0-3.419-.855-1.923-.855-2.778,2.137-11.539-.427-11.539S405.185,541.011,405.185,541.011Z" transform="translate(-277.296 -351.474)" fill="#2f2e41"/><path d="M321.126,515.626l-2.992,1.5s-10.685,5.77-5.983,8.975,9.4-4.487,9.4-4.487l4.488-3.419Z" transform="translate(-221.444 -338.91)" fill="#ffb9b9"/><path d="M429.165,367.649s-.855,9.83-5.342,11.967-1.5,18.164-1.5,18.164l6.2,5.983,10.9-3.205,1.282-7.265,1.068-7.479-2.564-3.846s-3.205-.855-1.923-9.4S429.165,367.649,429.165,367.649Z" transform="translate(-287.814 -249.484)" fill="#ffb9b9"/><path d="M410.158,404.164s4.915,16.24,8.334,16.24,5.342-3.846,5.77-8.548a30.368,30.368,0,0,1,3.205-9.83l6.624,5.983s5.342,47.226,4.915,48.508-17.1,2.778-23.72,4.7-13.249.427-13.249-.641c0-.952,3.39-9.192.81-15.21a25.07,25.07,0,0,1-1.893-6.73c-.4-3.168-.77-7-.413-8.191.641-2.137,4.06-24.788,4.06-24.788Z" transform="translate(-275.218 -270.614)" fill="#07f"/><path d="M374.152,392.568s-3.832,2.05-5.541,2.9-12.18,3.419-12.394,4.7,1.5,19.232.641,21.155-9.4,19.018-9.4,19.018l-.427,3.633s-14.1,16.882-12.394,18.8,8.12-5.983,8.12-5.983,14.317-22.865,14.745-23.72,9.189-16.668,10.471-17.1,4.274-18.377,4.7-19.232S374.779,392.227,374.152,392.568Z" transform="translate(-235.594 -264.913)" fill="#575a89"/><path d="M356.207,411.137h-1.282s-4.7,17.95-5.983,20.3-1.5,6.2-1.71,6.838-1.068.427-1.282,1.923-2.351,3.419-4.06,4.274-9.4,8.12-9.189,8.334,2.564,7.693,4.06,7.693,7.479-7.266,8.12-7.266,3.419-2.564,3.846-2.778,11.326-20.3,10.9-25.215S356.207,411.137,356.207,411.137Z" transform="translate(-234.515 -276.091)" fill="#575a89"/><path d="M517.316,549.959l2.632,2.064s9.315,7.79,4.068,9.99-8.315-6.277-8.315-6.277l-3.713-4.248Z" transform="translate(-342.306 -359.551)" fill="#ffb9b9"/><path d="M460.654,393.236a26.878,26.878,0,0,1,4.108,2.437c1.282,1.068,11.112,3.846,11.112,4.7s-1.068,14.1-1.068,14.1l1.5,23.506s2.137,26.5,2.564,27.139,1.068,4.06,0,4.06-6.411-5.983-6.2-8.975,1.71-9.83.214-11.539-8.548-30.344-8.548-32.054-2.992-18.8-2.778-19.232S460.654,393.236,460.654,393.236Z" transform="translate(-311.444 -265.328)" fill="#575a89"/><path d="M490.136,410.6l3.205.214,7.907,32.267s.641,4.06.855,4.488,3.419,19.018,2.137,19.659-5.556,2.992-5.77,1.5-2.351-9.83-4.488-11.753-4.274-35.045-4.274-35.045Z" transform="translate(-328.911 -275.768)" fill="#575a89"/><circle cx="8.761" cy="8.761" r="8.761" transform="translate(139.642 106.412)" fill="#ffb9b9"/><path d="M429.965,342.614a1.534,1.534,0,0,1,1.806.606,8.551,8.551,0,0,1,12.429-5.778v-.891a7.4,7.4,0,0,0-7.4-7.4h-1.779a13.9,13.9,0,0,0-13.9,13.9v2.481a12.463,12.463,0,0,0,6.826,11.116l8-4.237a8.552,8.552,0,0,1-4.283-6.354,1.753,1.753,0,0,1-2.056-1.1A1.723,1.723,0,0,1,429.965,342.614Z" transform="translate(-287.676 -226.801)" fill="#2f2e41"/><path d="M195.583,468.521l4.354,4.916,9.517-9.329" transform="translate(-117.586 -279.025)" fill="none" stroke="#57b894" stroke-miterlimit="10" stroke-width="4"/></svg>