<svg xmlns="http://www.w3.org/2000/svg" xmlns:xlink="http://www.w3.org/1999/xlink" width="444" height="354.328" viewBox="0 0 444 354.328"><defs><linearGradient id="a" x1="0.5" y1="1" x2="0.5" gradientUnits="objectBoundingBox"><stop offset="0" stop-color="gray" stop-opacity="0.251"/><stop offset="0.54" stop-color="gray" stop-opacity="0.122"/><stop offset="1" stop-color="gray" stop-opacity="0.102"/></linearGradient><linearGradient id="j" x1="0.516" y1="0.999" x2="0.516" y2="-0.001" xlink:href="#a"/><linearGradient id="k" x1="1.221" y1="1.356" x2="1.221" y2="0.356" xlink:href="#a"/><linearGradient id="l" x1="1.26" y1="1.627" x2="1.26" y2="0.627" xlink:href="#a"/><linearGradient id="m" x1="0.506" y1="0.964" x2="0.506" y2="0.023" xlink:href="#a"/><linearGradient id="n" xlink:href="#a"/><linearGradient id="o" x1="0.498" x2="0.498" y2="0.007" xlink:href="#a"/><linearGradient id="p" xlink:href="#a"/><linearGradient id="u" xlink:href="#a"/><linearGradient id="y" y1="Infinity" y2="Infinity" xlink:href="#a"/><linearGradient id="ab" x1="0" y1="0.5" x2="1" y2="0.5" xlink:href="#a"/></defs><ellipse cx="33.387" cy="8.471" rx="33.387" ry="8.471" transform="translate(150.99 337.385)" fill="#f2f2f2"/><ellipse cx="33.387" cy="8.471" rx="33.387" ry="8.471" transform="translate(153.481 243.702)" fill="#f2f2f2"/><ellipse cx="33.387" cy="8.471" rx="33.387" ry="8.471" transform="translate(0 247.688)" fill="#f2f2f2"/><rect width="190.855" height="7.226" transform="translate(11.272 1.993)" fill="#f5f5f5"/><rect width="197.333" height="242.182" transform="translate(7.784)" fill="url(#a)"/><rect width="190.855" height="228.976" transform="translate(11.272 9.219)" fill="#fff"/><circle cx="1.744" cy="1.744" r="1.744" transform="translate(13.455 3.987)" fill="#ff5252"/><circle cx="1.744" cy="1.744" r="1.744" transform="translate(18.248 3.987)" fill="#ff0"/><circle cx="1.744" cy="1.744" r="1.744" transform="translate(23.047 3.987)" fill="#69f0ae"/><g transform="translate(16.753 17.939)" opacity="0.2"><rect width="74.249" height="4.485" fill="#07f"/></g><rect width="74.249" height="4.485" transform="translate(69.575 36.377)" fill="#f5f5f5"/><rect width="74.249" height="4.485" transform="translate(16.753 180.889)" fill="#07f" opacity="0.5"/><rect width="24.916" height="5.481" transform="translate(100.969 180.391)" fill="url(#a)"/><rect width="24.916" height="5.481" transform="translate(100.969 208.296)" fill="url(#a)"/><rect width="24.916" height="5.481" transform="translate(151.797 208.296)" fill="url(#a)"/><rect width="23.421" height="4.485" transform="translate(101.966 180.889)" fill="#07f"/><rect width="23.421" height="4.485" transform="translate(101.966 208.795)" fill="#07f"/><rect width="23.421" height="4.485" transform="translate(152.295 208.795)" fill="#07f"/><rect width="74.249" height="4.485" transform="translate(16.753 194.842)" fill="#f5f5f5"/><rect width="74.249" height="4.485" transform="translate(101.966 194.842)" fill="#07f" opacity="0.5"/><rect width="74.249" height="4.485" transform="translate(101.966 222.747)" fill="#f5f5f5"/><rect width="74.249" height="4.485" transform="translate(16.753 208.795)" fill="#07f" opacity="0.5"/><rect width="74.249" height="4.485" transform="translate(16.753 222.747)" fill="#f5f5f5"/><rect width="41.859" height="4.485" transform="translate(69.575 43.852)" fill="#f5f5f5"/><rect width="14.451" height="4.485" transform="translate(118.908 43.852)" fill="#f5f5f5"/><rect width="41.859" height="4.485" transform="translate(69.575 58.801)" fill="#f5f5f5"/><rect width="14.451" height="4.485" transform="translate(118.908 58.801)" fill="#f5f5f5"/><rect width="74.249" height="4.485" transform="translate(69.575 51.327)" fill="#f5f5f5"/><g transform="translate(121.4 17.939)" opacity="0.2"><rect width="74.249" height="4.485" fill="#07f"/></g><rect width="8.97" height="5.481" transform="translate(163.258 35.879)" fill="url(#a)"/><rect width="8.97" height="5.481" transform="translate(163.258 43.354)" fill="url(#a)"/><rect width="8.97" height="5.481" transform="translate(163.258 50.828)" fill="url(#a)"/><rect width="7.973" height="4.485" transform="translate(163.757 36.377)" fill="#ff5252"/><rect width="7.973" height="4.485" transform="translate(163.757 43.852)" fill="#ff9800"/><rect width="7.973" height="4.485" transform="translate(163.757 51.327)" fill="#69f0ae"/><rect width="8.97" height="5.481" transform="translate(163.258 58.303)" fill="url(#a)"/><rect width="7.973" height="4.485" transform="translate(163.757 58.801)" fill="#07f"/><rect width="182.882" height="74.747" transform="translate(15.258 90.694)" fill="url(#a)"/><rect width="178.896" height="70.761" transform="translate(16.753 92.189)" fill="#07f" opacity="0.5"/><path d="M39.1,190.481H212.516V185H33.62v70.761H39.1Z" transform="translate(-16.867 -92.811)" fill="#fff" opacity="0.5"/><rect width="184.377" height="75.744" transform="translate(16.183 102.708) rotate(-5.2)" fill="url(#j)"/><rect width="178.896" height="70.761" transform="translate(19.34 104.416) rotate(-5.2)" fill="#fff"/><path d="M216.89,360.206l-3.09-39.252s15.946-16.943,48.137-4.385,47.37,3.693,52.6-4.789,32.391-17.939,41.191-3.752,19.355-1.764,19.355-1.764l3.568,39.2Z" transform="translate(-184.25 -197.959)" fill="#07f" opacity="0.5"/><line x2="0.269" y2="2.98" transform="translate(48.85 114.443)" fill="none" stroke="#07f" stroke-miterlimit="10" stroke-width="1"/><line x2="2.86" y2="31.424" transform="translate(49.642 123.134)" fill="none" stroke="#07f" stroke-miterlimit="10" stroke-width="1" stroke-dasharray="11.51 11.51"/><line x2="0.274" y2="2.975" transform="translate(52.762 157.413)" fill="none" stroke="#07f" stroke-miterlimit="10" stroke-width="1"/><line x2="0.274" y2="2.975" transform="translate(79.491 119.307)" fill="none" stroke="#07f" stroke-miterlimit="10" stroke-width="1"/><line x2="2.068" y2="22.678" transform="translate(80.354 128.765)" fill="none" stroke="#07f" stroke-miterlimit="10" stroke-width="1" stroke-dasharray="13.06 13.06"/><line x2="0.269" y2="2.98" transform="translate(82.716 154.682)" fill="none" stroke="#07f" stroke-miterlimit="10" stroke-width="1"/><line x2="0.299" y2="2.975" transform="translate(110.756 124.629)" fill="none" stroke="#07f" stroke-miterlimit="10" stroke-width="1"/><line x2="1.684" y2="16.993" transform="translate(111.538 132.462)" fill="none" stroke="#07f" stroke-miterlimit="10" stroke-width="1" stroke-dasharray="9.79 9.79"/><line x2="0.294" y2="2.98" transform="translate(113.467 151.882)" fill="none" stroke="#07f" stroke-miterlimit="10" stroke-width="1"/><line x2="0.269" y2="2.98" transform="translate(138.856 107.058)" fill="none" stroke="#07f" stroke-miterlimit="10" stroke-width="1"/><line x2="2.806" y2="30.791" transform="translate(139.633 115.634)" fill="none" stroke="#07f" stroke-miterlimit="10" stroke-width="1" stroke-dasharray="11.28 11.28"/><line x2="0.274" y2="2.98" transform="translate(142.693 149.221)" fill="none" stroke="#07f" stroke-miterlimit="10" stroke-width="1"/><line x2="0.269" y2="2.975" transform="translate(159.137 102.947)" fill="none" stroke="#07f" stroke-miterlimit="10" stroke-width="1"/><line x2="2.965" y2="32.555" transform="translate(159.945 111.842)" fill="none" stroke="#07f" stroke-miterlimit="10" stroke-width="1" stroke-dasharray="11.93 11.93"/><line x2="0.274" y2="2.975" transform="translate(163.179 147.357)" fill="none" stroke="#07f" stroke-miterlimit="10" stroke-width="1"/><circle cx="2.492" cy="2.492" r="2.492" transform="translate(46.048 111.996) rotate(-5.2)" fill="#ff9800"/><circle cx="2.492" cy="2.492" r="2.492" transform="translate(76.545 117.228) rotate(-5.2)" fill="#ff5252"/><circle cx="2.492" cy="2.492" r="2.492" transform="translate(108.04 122.366) rotate(-5.2)" fill="#69f0ae"/><circle cx="3.488" cy="3.488" r="3.488" transform="translate(134.881 103.911) rotate(-5.2)" fill="url(#k)"/><circle cx="3.488" cy="3.488" r="3.488" transform="translate(155.543 100.031) rotate(-5.2)" fill="url(#l)"/><circle cx="2.492" cy="2.492" r="2.492" transform="translate(135.964 104.813) rotate(-5.2)" fill="#07f"/><circle cx="2.492" cy="2.492" r="2.492" transform="translate(156.626 100.934) rotate(-5.2)" fill="#07f"/><circle cx="2.492" cy="2.492" r="2.492" transform="translate(188.206 107.066) rotate(-5.2)" fill="#69f0ae"/><g transform="translate(195.968 158.8)" opacity="0.2"><path d="M547.76,413.177l.035.115C548.179,413.077,547.76,413.177,547.76,413.177Z" transform="translate(-547.76 -413.154)" fill="url(#m)"/></g><g transform="translate(161.926 156.472)" opacity="0.2"><path d="M509.362,494.54l8.113-1.311-1.116-4.983h0v-.07h-.03l-5.751-26.411v-19.26a7.128,7.128,0,0,0-.04-.733c8.591-11.392,3.488-29.266,2.99-30.826-.09.045-.224.1-.414.179a10.494,10.494,0,0,0-.394-2.058s-2.492-1.585-3.852.453c-1.186,1.779-.3,2.865-.06,3.119l-.169.055a5.741,5.741,0,0,1,.787,1.963,4.307,4.307,0,0,0-.269-.5c-.314-.055-.5-.1-.5-.1L508.6,414l-.169.055c.862,1.261,1.166,3.488,1.126,6.129a8.654,8.654,0,0,0-1-1.151,8.8,8.8,0,0,0-5.83-2.432h-.414a5.159,5.159,0,0,0-.678.045h-.169l-.284.04-.324.06-.234.05-.4.11-.149.045c-.169.055-.334.11-.5.174a8.594,8.594,0,0,1-1.709.618.83.83,0,0,0-.244.025h0a2.851,2.851,0,0,1-1.869-.533l-.179-.14a2.653,2.653,0,0,1-.194-.184,1.266,1.266,0,0,0-.085.543,1.669,1.669,0,0,0,.583,1.131,1.579,1.579,0,0,0,.309.209,1.336,1.336,0,0,0,.528.149h.144c-.115.055-.229.1-.349.15h-.025c-.13.045-.254.085-.389.12h0a4.325,4.325,0,0,1-1.993.03h0l-.214-.05c-.1-.03-.214-.06-.314-.095a2.393,2.393,0,0,0,.11.219l.04.065.09.14.055.07.1.125.06.065.125.125.05.045.184.154.065.045.135.095.09.055.12.07.1.05.125.055.1.045.14.05.174.05.13.035h.867a2.493,2.493,0,0,0,.748-.184l-.458.189h0l-.229.08-.234.085-.234.07-.239.07-.234.06-.249.06-.229.045-.264.045-.219.035-.284.035h-1.2a2.1,2.1,0,0,1,.752.4,1.994,1.994,0,0,0,.463.249,1.783,1.783,0,0,0,.224.05h1.116a3.259,3.259,0,0,1,1.291.414,2.319,2.319,0,0,1,.553.5c-.07.115-.14.224-.2.344s-.1.2-.154.3a6.2,6.2,0,0,0-.264.633,7.016,7.016,0,0,0-.429,2.417v.578a1.651,1.651,0,0,0,.04.359v.095q.03.219.08.434v.085q.04.179.09.354l.03.1a6.975,6.975,0,0,0,.3.827l.035.08q.085.184.174.359v.035q.11.2.229.394v.03q.11.179.234.349l.03.04a7.065,7.065,0,0,0,.583.7h0a7.046,7.046,0,0,0,1.879,1.41,3.109,3.109,0,0,0-.055.324h0a3.169,3.169,0,0,0,0,.339v2.631q-.224.12-.439.254c-6.244-2.835-15.542-22.923-15.542-22.923h-.224c.907-.678,0-3.628,0-3.628a4.256,4.256,0,0,0-1.744-.578h-.8l-.1.03h-.05l-.149.055h0l-.14.065-.05.025-.095.055-.065.3-.09.06-.055.045-.085.07-.055.05-.085.08-.05.055-.085.1-.04.05-.125.169c-1.36,2.038,0,3.174,0,3.174a20.3,20.3,0,0,0-.125,2.367c-.1,14.68,15.612,26.057,16.415,26.625a30.136,30.136,0,0,0,.035,19.18.323.323,0,0,0,.04.07,29.441,29.441,0,0,0-8.83,27.846l.065.3h.145a1.985,1.985,0,0,1-.055.2,2.28,2.28,0,0,1-.145.349,2.708,2.708,0,0,1-.364.533h0c-.154.179-.334.359-.523.543l-.2.189c-.792.757-1.595,1.495-1,1.794h8.576v-3.742h.149s-.06-.115-.149-.339v-.04h-.03c-.448-1.156-1.495-4.734.179-10.245,2.038-6.8,9.966-10.2,9.966-10.2l.144.5h-.03l6.219,20.431a.832.832,0,0,1-.025.244,3.328,3.328,0,0,1-.135.568,3.608,3.608,0,0,1-.169.419c-.384.792-1.047,1.724-1.336,2.422a2.341,2.341,0,0,0-.1.294.906.906,0,0,0-.035.349.4.4,0,0,0,.264.334h.115l.239-.04Zm-2.4-58.168q-.234-.13-.5-.244v-2.472a3.147,3.147,0,0,0-.055-.563,7.031,7.031,0,0,0,1.495-.962c-.3,1.525-.633,2.985-.937,4.241Z" transform="translate(-479.447 -408.482)" fill="url(#n)"/></g><path d="M479.711,418.387s-1.495-1.256,0-3.518,4.271-.5,4.271-.5,1,3.264,0,4.016S479.711,418.387,479.711,418.387Z" transform="translate(-317.32 -254.635)" fill="#ca7070"/><path d="M501.746,591.75h-6.922a2.272,2.272,0,0,1-.653,1.779c-.932,1.076-2.805,2.377-1.923,2.821h9.5Z" transform="translate(-323.827 -343.952)" fill="#00695c"/><path d="M494.68,593.529a2.272,2.272,0,0,0,.653-1.779h-.5a2.272,2.272,0,0,1-.653,1.779c-.932,1.076-2.806,2.377-1.923,2.82h.5C491.875,595.906,493.748,594.61,494.68,593.529Z" transform="translate(-323.832 -343.952)" fill="#fff" opacity="0.2"/><path d="M552.532,588.89l-6.478,1.051a3.3,3.3,0,0,1-.294,2.282c-.708,1.495-2.3,3.359-1.34,3.762l9.378-1.495Z" transform="translate(-349.967 -342.517)" fill="#00695c"/><path d="M546,416.922s7.41,23.376-5.018,36.317l-3.588-2.746s7.345-25.514,3.234-31.5C547.88,416.574,546,416.922,546,416.922Z" transform="translate(-346.59 -256.235)" fill="#00695c"/><path d="M543.711,416.377s-1.495-1.256,0-3.518,4.271-.5,4.271-.5,1,3.264,0,4.016S543.711,416.377,543.711,416.377Z" transform="translate(-349.427 -253.627)" fill="#ca7070"/><path d="M546.258,592.2a3.3,3.3,0,0,0,.294-2.287l5.98-1v-.08l-6.478,1.076a3.3,3.3,0,0,1-.294,2.282c-.708,1.495-2.3,3.359-1.34,3.762l.394-.065C544.1,595.4,545.581,593.609,546.258,592.2Z" transform="translate(-349.967 -342.492)" fill="#fff" opacity="0.2"/><rect width="7.031" height="10.42" rx="3.516" transform="translate(184.616 182.464)" fill="#ca7070"/><path d="M537.642,455.548s7.255-25.2,3.3-31.394c-.349-.065-.573-.115-.573-.115l-.065-.06-.184.06c4.111,5.98-3.234,31.5-3.234,31.5l3.588,2.746.314-.339Z" transform="translate(-346.339 -259.785)" fill="#fff" opacity="0.2"/><circle cx="7.784" cy="7.784" r="7.784" transform="translate(180.475 170.539)" fill="#ca7070"/><path d="M521.68,455.551v-3.389a3.488,3.488,0,0,1,.08-.737,7.784,7.784,0,0,1,3.119-14.7h-.438a7.784,7.784,0,0,0-3.563,14.705,3.489,3.489,0,0,0-.08.738v3.389a3.488,3.488,0,0,0,3.957,3.488A3.528,3.528,0,0,1,521.68,455.551Z" transform="translate(-336.186 -266.181)" fill="#fff" opacity="0.2"/><path d="M530.746,500.857s-15.014,1.694-15.567,0a33.191,33.191,0,0,1,0-21.343,7.784,7.784,0,0,1,7.784-7.784h0a7.784,7.784,0,0,1,7.784,7.784Z" transform="translate(-334.579 -283.74)" fill="#00695c"/><path d="M521.813,530.18l6.782,31.14h-6.782l-7.031-23.1s-8.79,3.767-11.048,11.3,0,11.8,0,11.8h-7.285l-.075-.339a32.391,32.391,0,0,1,9.867-30.8h0" transform="translate(-325.646 -313.064)" fill="#263238"/><path d="M515.93,500.872a33.191,33.191,0,0,1,0-21.343,7.784,7.784,0,0,1,7.282-7.769h-.5a7.784,7.784,0,0,0-7.784,7.784,33.2,33.2,0,0,0,0,21.343c.2.608,2.252.777,4.8.752C517.659,501.594,516.09,501.395,515.93,500.872Z" transform="translate(-334.453 -283.755)" fill="#fff" opacity="0.2"/><path d="M498.327,454.982S478.24,440.92,480.248,423.09h4.52s10.794,23.376,17.71,25.618S498.327,454.982,498.327,454.982Z" transform="translate(-317.852 -259.338)" fill="#00695c"/><g transform="translate(170.007 217.241)" opacity="0.2"><path d="M534.31,546.984l6.9,22.678h1l-7.031-23.1S534.853,546.7,534.31,546.984Z" transform="translate(-515.052 -538.522)" fill="#fff"/><path d="M507.257,530.43h-1a32.391,32.391,0,0,0-9.867,30.8l.075.339h1l-.075-.339A32.391,32.391,0,0,1,507.257,530.43Z" transform="translate(-495.663 -530.43)" fill="#fff"/></g><path d="M481,423.6h-.752c-1.993,17.83,18.079,31.892,18.079,31.892l.5-.189C496.5,453.584,479.124,440.244,481,423.6Z" transform="translate(-317.854 -259.594)" fill="#fff" opacity="0.2"/><path d="M514.522,437.53a12.881,12.881,0,0,1,.907,3.134,8.312,8.312,0,0,0,3.563,5.481,7.908,7.908,0,0,0,3.488.952,6.66,6.66,0,0,0,5.172-1.56,6.409,6.409,0,0,0,1.58-3.184,10.779,10.779,0,0,0-2.835-9.907,9.563,9.563,0,0,0-9.966-2.088,9.515,9.515,0,0,1-1.889.688,3.144,3.144,0,0,1-2.756-.917,1.739,1.739,0,0,0,1.679,2.252,4.849,4.849,0,0,1-3.717.2,3.154,3.154,0,0,0,3.987,1.59,10.625,10.625,0,0,1-4.485.917c.324,0,.957.6,1.35.718a8.56,8.56,0,0,0,1.495.1A2.9,2.9,0,0,1,514.522,437.53Z" transform="translate(-332.472 -262.686)" fill="#263238"/><g transform="translate(176.758 167.071)" opacity="0.2"><path d="M515.894,432.732a4.8,4.8,0,0,1-1.844.473,4.834,4.834,0,0,0,2.347-.473,1.759,1.759,0,0,1-1.764-1.9,2.96,2.96,0,0,1-.419-.354,1.739,1.739,0,0,0,1.679,2.252Z" transform="translate(-511.638 -430.117)" fill="#fff"/><path d="M520.137,431.046a9.515,9.515,0,0,0,1.889-.688,8.661,8.661,0,0,1,2.99-.6,8.75,8.75,0,0,0-3.488.6,9.518,9.518,0,0,1-1.889.688.828.828,0,0,0-.269.03,2.989,2.989,0,0,0,.767-.03Z" transform="translate(-514.307 -429.751)" fill="#fff"/><path d="M511.059,440.254c-.394-.115-1.027-.708-1.35-.718a10.624,10.624,0,0,0,4.485-.917,2.781,2.781,0,0,1-1,.209,10.629,10.629,0,0,1-3.987.708c.324,0,.957.6,1.35.718a3.343,3.343,0,0,0,1.047.085A2.182,2.182,0,0,1,511.059,440.254Z" transform="translate(-509.21 -434.2)" fill="#fff"/><path d="M525.592,453.293a7.908,7.908,0,0,1-3.488-.952,8.431,8.431,0,0,1-3.563-5.481,12.883,12.883,0,0,0-.907-3.134,2.9,2.9,0,0,0-2.457-1.61,5.018,5.018,0,0,0-.747,0h.244a2.9,2.9,0,0,1,2.457,1.61,12.881,12.881,0,0,1,.907,3.134,8.311,8.311,0,0,0,3.563,5.481,7.908,7.908,0,0,0,3.488.952h.5Z" transform="translate(-511.829 -435.947)" fill="#fff"/><path d="M513.424,437.194a3.179,3.179,0,0,1-2.551-1.629,4.652,4.652,0,0,1-.583-.164A3.179,3.179,0,0,0,513.424,437.194Z" transform="translate(-509.752 -432.585)" fill="#fff"/></g><path d="M480.219,418.382s-1.495-1.256,0-3.518a2.407,2.407,0,0,1,1.864-1.141,2.442,2.442,0,0,0-2.362,1.141c-1.495,2.262,0,3.518,0,3.518a13.617,13.617,0,0,0,2.955.329,14.865,14.865,0,0,1-2.457-.329Z" transform="translate(-317.325 -254.631)" fill="#fff" opacity="0.2"/><g transform="translate(18.224 163.716)" opacity="0.2"><path d="M191.27,423.173l.04-.135S190.8,422.939,191.27,423.173Z" transform="translate(-191.072 -423.018)" fill="url(#o)"/></g><g transform="translate(7.873 160.9)" opacity="0.2"><path d="M227.806,428.691a3.282,3.282,0,0,0-.179-.463c0-.05-.05-.09-.075-.135a2.8,2.8,0,0,0-.149-.259l-.1-.13a2.518,2.518,0,0,0-.164-.194l-.115-.115q-.09-.082-.179-.149l-.125-.09-.2-.12-.125-.065-.224-.095-.115-.045a2.756,2.756,0,0,0-.324-.09h0a5.148,5.148,0,0,0-2.188.06s-2.088,3.08-1.286,4.186l-.264-.08s-15.513,17.312-24.263,20.526q-.334-.229-.693-.429v-3.239a3.818,3.818,0,0,0,0-.409h0a3.789,3.789,0,0,0-.065-.384l.065-.035.259-.145.374-.229.239-.154a4.958,4.958,0,0,0,.5-.389l.194-.169q.179-.15.344-.314l.2-.194q.209-.214.4-.439l.14-.169q.179-.224.344-.458l.14-.209q.15-.229.284-.468l.09-.154a6.819,6.819,0,0,0,.3-.638l.08-.194q.1-.264.194-.533a.926.926,0,0,1,.06-.189c.07-.234.135-.468.184-.713a.3.3,0,0,1,.025-.145q.06-.3.095-.618v-.209c0-.254.04-.5.04-.772a8.472,8.472,0,0,0-1.884-5.328c.663-1.036,1.1-1.649,1.1-1.649-.4-.274-.792-.523-1.181-.767l-.379-.224c-.259-.154-.5-.309-.777-.448l-.434-.229c-.234-.125-.463-.244-.693-.354l-.444-.2-.663-.289-.434-.174c-.219-.085-.439-.164-.653-.239l-.409-.14c-.224-.07-.448-.135-.668-.194l-.364-.1c-.249-.06-.5-.11-.742-.159l-.264-.055c-.334-.06-.663-.1-1-.135h0a11.815,11.815,0,0,0-5.98.917,11.036,11.036,0,0,1,1.335-5.561l-.2-.07-.07.07s-.244.055-.628.125a5.2,5.2,0,0,0-.324.6,6.932,6.932,0,0,1,.952-2.372l-.2-.07c.294-.3,1.36-1.615-.07-3.762-1.644-2.462-4.654-.548-4.654-.548a12.736,12.736,0,0,0-.468,2.492c-.229-.095-.394-.164-.5-.219a62.04,62.04,0,0,0-2.337,15.627c-5.427,7.7-7.669,19.076-8.108,21.527h0l-.035.194h0c-.03.179-.045.274-.045.274l14.107.329v22.484l-10.27,21.722s3.907.125,9.787.877L182.3,515h0l-.543,3.259h9.777c1.086-2.173-4.345-3.259-4.345-3.259h-.12l2.118-10.838q1.405.234,2.89.5a28.315,28.315,0,0,0,4.4.5h0a23.383,23.383,0,0,0,3.663-.159,25.494,25.494,0,0,1-.4,9.966h-.055l-.543,3.259h9.777c.947-1.894-3.06-2.965-4.1-3.2l.045-.319a54.523,54.523,0,0,0,.384-11.063,13.391,13.391,0,0,0,3.488-2.078h0l.135-.12h0l.04-.04-7.28-20.431c1.36-5.78-3.374-11.85-.847-14.885s1-6.907.7-7.569c6.837-2.99,20.655-10.465,24.532-23.421a24.5,24.5,0,0,0,.693-2.776S228.653,431.526,227.806,428.691Z" transform="translate(-170.3 -417.368)" fill="url(#p)"/></g><path d="M192.373,430.922s-7.41,23.376,5.018,36.317l3.588-2.746s-7.345-25.514-3.234-31.5C190.49,430.574,192.373,430.922,192.373,430.922Z" transform="translate(-172.401 -263.259)" fill="#ff5252"/><path d="M200.115,430.377s1.495-1.256,0-3.518-4.271-.5-4.271-.5-1,3.264,0,4.016S200.115,430.377,200.115,430.377Z" transform="translate(-175.019 -260.65)" fill="#f6b9ad"/><rect width="7.031" height="10.42" rx="3.516" transform="translate(34.763 199.86) rotate(180)" fill="#f6b9ad"/><path d="M206.328,469.548s-7.255-25.2-3.3-31.394c.349-.065.573-.115.573-.115l.065-.06.184.06c-4.111,5.98,3.234,31.5,3.234,31.5l-3.588,2.746-.314-.339Z" transform="translate(-178.253 -266.808)" fill="#fff" opacity="0.2"/><circle cx="7.784" cy="7.784" r="7.784" transform="translate(23.336 177.515)" fill="#f6b9ad"/><path d="M219.279,469.551v-3.389a3.49,3.49,0,0,0-.08-.738,7.784,7.784,0,0,0-3.119-14.7h.439a7.784,7.784,0,0,1,3.563,14.705,3.486,3.486,0,0,1,.08.738v3.389a3.488,3.488,0,0,1-3.957,3.488,3.528,3.528,0,0,0,3.075-3.5Z" transform="translate(-185.394 -273.205)" fill="#fff" opacity="0.2"/><path d="M201.08,514.857s15.014,1.694,15.567,0c1.794-5.481-2.99-11.406-.6-14.3,2.492-2.99.6-7.041.6-7.041a7.784,7.784,0,0,0-7.784-7.784h0a7.784,7.784,0,0,0-7.784,7.784Z" transform="translate(-177.868 -290.764)" fill="#ff5252"/><path d="M223.424,500.555c2.492-2.99.6-7.041.6-7.041a7.784,7.784,0,0,0-7.784-7.784,3.312,3.312,0,0,0-.5.025,7.779,7.779,0,0,1,7.285,7.759s1.894,4.051-.6,7.041c-2.412,2.9,2.392,8.815.6,14.3-.169.523-1.719.723-3.777.752,2.536.025,4.58-.144,4.774-.752C225.836,509.365,221.012,503.45,223.424,500.555Z" transform="translate(-185.223 -290.764)" fill="#fff" opacity="0.2"/><path d="M211.482,543.18h0c5.481,7.769,7.908,19.509,6.339,30.8l-.045.339H213.1s1.45-4.271,0-11.8a18.632,18.632,0,0,0-7.1-11.3l-4.515,23.1H197.13l4.355-31.14Z" transform="translate(-175.887 -319.585)" fill="#f6b9ad"/><path d="M274.609,448.04s1.809-.757,1.032-3.364-3.937-1.729-3.937-1.729-1.919,2.825-1.176,3.842S274.609,448.04,274.609,448.04Z" transform="translate(-212.624 -269.229)" fill="#f6b9ad"/><path d="M220.545,477.17s23.326-7.559,26.63-25.195l-4.32-1.326s-17.167,19.165-24.418,19.3S220.545,477.17,220.545,477.17Z" transform="translate(-185.195 -273.165)" fill="#ff5252"/><path d="M250.791,453.35l.723.219c-3.3,17.635-26.63,25.195-26.63,25.195l-.414-.324C227.226,477.483,247.711,469.8,250.791,453.35Z" transform="translate(-189.603 -274.519)" fill="#fff" opacity="0.2"/><g transform="translate(24.597 223.595)" opacity="0.2"><path d="M208.375,559.31l-4.515,23.1h1l4.385-22.424a10.791,10.791,0,0,0-.867-.678Z" transform="translate(-203.86 -551.272)" fill="#fff"/><path d="M224.927,543.18h-1c5.481,7.769,7.908,19.509,6.339,30.8l-.045.339h1l.045-.339C232.835,562.689,230.418,550.949,224.927,543.18Z" transform="translate(-213.929 -543.18)" fill="#fff"/></g><path d="M275.462,447.963s1.809-.757,1.032-3.364a2.407,2.407,0,0,0-1.445-1.639,2.442,2.442,0,0,1,1.923,1.784c.777,2.6-1.032,3.364-1.032,3.364a13.615,13.615,0,0,1-2.92-.548A14.868,14.868,0,0,0,275.462,447.963Z" transform="translate(-213.96 -269.307)" fill="#fff" opacity="0.2"/><path d="M191.548,542.48l-9.468,19.933a117.11,117.11,0,0,1,16.444,1.993c10.465,1.993,15.448-2.99,15.448-2.99L207.22,542.48Z" transform="translate(-168.336 -319.234)" fill="#263238"/><path d="M201.1,605.48s4.983,1,3.987,2.99h-8.97l.5-2.99Z" transform="translate(-175.38 -350.84)" fill="#ff5252"/><path d="M233.1,605.48s4.983,1,3.987,2.99h-8.97l.5-2.99Z" transform="translate(-191.434 -350.84)" fill="#ff5252"/><path d="M203.026,450s-11.96,16.943-6.478,23.919l-21.428-.5S181.1,435.05,203.026,450Z" transform="translate(-164.845 -271.104)" fill="#fccc63"/><path d="M203.026,450.059a18.152,18.152,0,0,0-8.347-3.4,21.1,21.1,0,0,1,5.855,2.9s-11.96,16.943-6.478,23.919l-18.861-.439c-.05.284-.075.439-.075.439l21.428.5C191.066,467,203.026,450.059,203.026,450.059Z" transform="translate(-164.845 -271.163)" fill="#fff" opacity="0.2"/><path d="M227.889,542.48h-1.495l6.752,18.936s-3.219,3.214-9.917,3.443c7.709.249,11.411-3.443,11.411-3.443Z" transform="translate(-188.981 -319.234)" fill="#fff" opacity="0.2"/><path d="M205.117,605.48h-1s4.983,1,3.987,2.99h1C210.1,606.477,205.117,605.48,205.117,605.48Z" transform="translate(-179.394 -350.84)" fill="#fff" opacity="0.2"/><path d="M237.117,605.48h-1s4.983,1,3.987,2.99h1C242.1,606.477,237.117,605.48,237.117,605.48Z" transform="translate(-195.447 -350.84)" fill="#fff" opacity="0.2"/><rect width="190.855" height="7.226" transform="translate(249.467 83.558)" fill="#f5f5f5"/><rect width="198.33" height="247.165" transform="translate(245.67 81.251)" fill="url(#a)"/><rect width="190.855" height="228.976" transform="translate(249.467 90.783)" fill="#fff"/><circle cx="1.744" cy="1.744" r="1.744" transform="translate(252.148 85.551)" fill="#ff5252"/><circle cx="1.744" cy="1.744" r="1.744" transform="translate(256.942 85.551)" fill="#ff0"/><circle cx="1.744" cy="1.744" r="1.744" transform="translate(261.741 85.551)" fill="#69f0ae"/><g transform="translate(261.427 100.999)" opacity="0.2"><rect width="167.434" height="4.485" fill="#07f"/></g><rect width="72.256" height="76.741" transform="translate(260.43 120.433)" fill="url(#a)"/><rect width="69.266" height="71.758" transform="translate(261.925 122.925)" fill="#fff"/><rect width="72.256" height="76.741" transform="translate(356.605 158.803)" fill="url(#a)"/><rect width="69.266" height="71.758" transform="translate(358.1 161.295)" fill="#fff"/><rect width="169.926" height="52.822" transform="translate(261.925 253.484)" fill="url(#a)"/><rect width="163.448" height="47.34" transform="translate(265.413 256.972)" fill="#07f" opacity="0.5"/><path d="M536.607,520.165H696.068V515.68H532.62v47.34h3.987Z" transform="translate(-267.207 -258.708)" fill="#fff" opacity="0.5"/><path d="M741.4,361.89a30.9,30.9,0,1,0,7.475,20.157A30.9,30.9,0,0,0,741.4,361.89Zm-12.458,38.6a12.207,12.207,0,1,1,.015,0Z" transform="translate(-421.688 -223.243)" fill="url(#u)"/><path d="M764.593,370.236l6.8-5.855a29.326,29.326,0,0,0-22.275-10.22v8.97A20.386,20.386,0,0,1,764.593,370.236Z" transform="translate(-452.811 -224.757)" fill="#ff5252"/><path d="M736.9,451.265a20.3,20.3,0,0,1-8.432-1.829l-3.7,8.177a29.4,29.4,0,0,0,27.153-1.495l-4.585-7.719A20.3,20.3,0,0,1,736.9,451.265Z" transform="translate(-440.595 -272.036)" fill="#69f0ae"/><path d="M789.026,393.84a29.276,29.276,0,0,0-7.126-19.18l-6.8,5.855a20.4,20.4,0,0,1-5.038,30.9l4.585,7.719a29.4,29.4,0,0,0,14.381-25.29Z" transform="translate(-463.316 -235.042)" fill="#ff9800"/><path d="M699.088,383.551a20.431,20.431,0,0,1,20.431-20.431v-8.97a29.4,29.4,0,0,0-12.134,56.18l3.7-8.177a20.431,20.431,0,0,1-12-18.6Z" transform="translate(-423.21 -224.752)" fill="#07f"/><rect width="52.822" height="8.97" transform="translate(367.568 171.76)" fill="url(#a)"/><rect width="51.825" height="7.973" transform="translate(368.067 172.258)" fill="#07f"/><rect width="37.872" height="7.973" transform="translate(368.067 185.713)" fill="#ff5252"/><rect width="25.912" height="7.973" transform="translate(368.067 199.167)" fill="#69f0ae"/><rect width="46.842" height="7.973" transform="translate(368.067 212.622)" fill="#ff9800"/><rect width="74.249" height="4.485" transform="translate(261.925 209.133)" fill="#f5f5f5"/><rect width="41.859" height="4.485" transform="translate(261.925 216.608)" fill="#f5f5f5"/><rect width="14.451" height="4.485" transform="translate(311.258 216.608)" fill="#f5f5f5"/><rect width="14.451" height="4.485" transform="translate(311.258 233.053)" fill="#f5f5f5"/><rect width="41.859" height="4.485" transform="translate(261.925 231.558)" fill="#f5f5f5"/><rect width="74.249" height="4.485" transform="translate(261.925 224.083)" fill="#f5f5f5"/><rect width="74.249" height="4.485" transform="translate(355.609 120.931)" fill="#f5f5f5"/><rect width="41.859" height="4.485" transform="translate(355.609 128.406)" fill="#f5f5f5"/><rect width="14.451" height="4.485" transform="translate(404.942 128.406)" fill="#f5f5f5"/><rect width="14.451" height="4.485" transform="translate(404.942 144.851)" fill="#f5f5f5"/><rect width="41.859" height="4.485" transform="translate(355.609 143.356)" fill="#f5f5f5"/><rect width="74.249" height="4.485" transform="translate(355.609 135.881)" fill="#f5f5f5"/><circle cx="5.481" cy="5.481" r="5.481" transform="translate(373.548 337.699)" fill="url(#a)"/><circle cx="3.987" cy="3.987" r="3.987" transform="translate(375.043 339.194)" fill="#ff5252"/><rect width="171.421" height="60.296" transform="translate(217.077 282.386)" fill="url(#a)"/><rect width="163.448" height="47.34" transform="translate(222.06 284.878)" fill="#fff"/><line x2="151.488" transform="translate(227.541 323.248)" stroke="#07f" stroke-miterlimit="10" stroke-width="3" fill="url(#y)"/><rect width="22.424" height="27.407" transform="translate(229.036 294.346)" fill="url(#a)"/><rect width="19.933" height="25.414" transform="translate(230.282 295.591)" fill="#07f"/><rect width="19.933" height="7.973" transform="translate(355.11 313.78)" fill="#69f0ae"/><rect width="19.933" height="17.939" transform="translate(317.737 303.315)" fill="#ff9800"/><rect width="19.933" height="14.949" transform="translate(273.885 306.305)" fill="#ff5252"/><rect width="163.448" height="6.976" transform="translate(222.06 332.218)" fill="#ff5252"/><circle cx="5.481" cy="5.481" r="5.481" transform="translate(223.555 337.699)" fill="url(#a)"/><circle cx="3.987" cy="3.987" r="3.987" transform="translate(225.05 339.194)" fill="#ff5252"/><rect width="3.987" height="52.323" transform="translate(218.073 286.871)" fill="#ff5252"/><rect width="3.987" height="52.323" transform="translate(218.073 286.871)" opacity="0.2"/><path d="M543.3,650.155v-.4a.239.239,0,0,0-.03-.155,1.714,1.714,0,0,1-.06-.219c-.025-.07-.03-.095-.05-.145s-.06-.14-.09-.209l-.06-.125c-.04-.07-.085-.14-.13-.2l-.065-.095a3.29,3.29,0,0,0-.209-.259h0a4.794,4.794,0,0,0-1.39-1.027,4.011,4.011,0,0,0,.892-1.535,3.2,3.2,0,0,0,.12-.468v-.144a2.726,2.726,0,0,0,.025-.289v-.4a.239.239,0,0,0-.03-.154,1.707,1.707,0,0,1-.06-.219c-.025-.07-.03-.095-.05-.144s-.06-.14-.09-.209l-.06-.125c-.04-.07-.085-.14-.13-.2l-.065-.095a3.278,3.278,0,0,0-.209-.259h0a5.019,5.019,0,0,0-1.769-1.2s-3.164,1.171-3.374,2.457c-2.322.5-15.856,3.314-25.15,3.09l-.07-.184a8.267,8.267,0,0,0-4.4-7.31v-3.13a3.718,3.718,0,0,0,0-.4h0a3.7,3.7,0,0,0-.06-.379l.06-.035.254-.14.369-.224.234-.154q.259-.179.5-.379l.189-.164c.115-.1.224-.2.334-.3l.194-.189q.2-.209.389-.429l.135-.169q.174-.219.334-.448l.135-.2q.144-.224.279-.458l.085-.15c.11-.2.209-.409.3-.618l.075-.189q.1-.254.189-.5l.06-.184c.07-.229.13-.458.179-.693a.277.277,0,0,1,.025-.14q.055-.3.09-.6v-.2c0-.249.04-.5.04-.753a8.227,8.227,0,0,0-1.061-4.041c.533-.13.857-.235.817-.285-.2-.274-.409-.533-.623-.782l-.2-.234c-.149-.169-.294-.329-.444-.5l-.239-.244c-.15-.15-.3-.289-.449-.424l-.234-.209q-.284-.239-.568-.464l-.125-.1c-.229-.169-.458-.329-.693-.5l-.259-.159c-.149-.095-.3-.184-.458-.264l-.309-.159-.429-.2-.314-.14c-.149-.065-.3-.12-.458-.174l-.284-.1c-.229-.075-.458-.144-.688-.2l-.354-.08-.384-.08-.384-.06-.354-.04-.394-.035h-.733q-.324,0-.648.03h0c-5.1.419-9.563,4.869-9.563,11.96v5.85h7.973V639.7a8.267,8.267,0,0,0-4.8,7.5v22.678l-6.767,31.09h-.09L486.33,706.9l9.548,1.545h0l.414.065c1-.429-.673-2.437-1.425-3.987a4.258,4.258,0,0,1-.2-.5,3.773,3.773,0,0,1-.189-.967L501.813,679h-.035l.174-.563s9.338,3.987,11.74,12c1.948,6.478.738,10.694.209,12.059h-.035v.08c-.1.259-.179.4-.179.4h.179v4.4h10.1c.937-.473-1.052-1.854-2.043-2.99a2.825,2.825,0,0,1-.658-1.271h.169l.08-.359a34.648,34.648,0,0,0-10.395-32.774.383.383,0,0,0,.045-.085,37.1,37.1,0,0,0,1.749-9c7.719.737,17.989.209,25.668-5.741a23.91,23.91,0,0,0,2.1-1.784c.663-.05,1.824-.419,2.467-2.292a3.19,3.19,0,0,0,.12-.468v-.145a2.715,2.715,0,0,0,.035-.319Z" transform="translate(-320.974 -357.723)" fill="url(#ab)"/><path d="M518.459,690.306s23.371,7.43,36.317-4.983l-2.746-3.593s-25.115,5.6-31.1,1.495S518.459,690.306,518.459,690.306Z" transform="translate(-336.578 -389.094)" fill="#07f"/><path d="M554.8,688l.458.6c-12.956,12.418-36.317,4.983-36.317,4.983s-.06-.189-.149-.5C521.576,693.915,542.719,699.6,554.8,688Z" transform="translate(-337.258 -392.239)" fill="#fff" opacity="0.2"/><path d="M588.761,683.06s1.914.433,2.8-2.133-2.193-3.7-2.193-3.7-3.2,1.181-3.194,2.437S588.761,683.06,588.761,683.06Z" transform="translate(-371.062 -386.836)" fill="#985454"/><path d="M589,683.785s1.914.434,2.8-2.133a2.407,2.407,0,0,0-.224-2.173,2.442,2.442,0,0,1,.528,2.571c-.882,2.571-2.8,2.133-2.8,2.133a13.617,13.617,0,0,1-2.053-2.148A14.859,14.859,0,0,0,589,683.785Z" transform="translate(-371.604 -387.965)" fill="#fff" opacity="0.2"/><path d="M541.7,781.75h6.922a2.272,2.272,0,0,0,.653,1.779c.932,1.076,2.806,2.377,1.924,2.821h-9.5Z" transform="translate(-348.752 -439.272)" fill="#07f"/><path d="M555.226,783.529a2.272,2.272,0,0,1-.653-1.779h.5a2.272,2.272,0,0,0,.653,1.779c.932,1.076,2.806,2.377,1.923,2.82h-.5C558.031,785.906,556.158,784.61,555.226,783.529Z" transform="translate(-355.207 -439.272)" fill="#fff" opacity="0.2"/><path d="M490.956,778.89l6.478,1.061a3.3,3.3,0,0,0,.294,2.282c.708,1.495,2.3,3.359,1.34,3.762L489.69,784.5Z" transform="translate(-322.659 -437.837)" fill="#07f"/><path d="M498.489,782.209a3.3,3.3,0,0,1-.294-2.282l-6-1v-.08l6.478,1.061a3.3,3.3,0,0,0,.294,2.282c.708,1.495,2.3,3.359,1.34,3.762l-.394-.065C500.646,785.4,499.166,783.614,498.489,782.209Z" transform="translate(-323.914 -437.817)" fill="#fff" opacity="0.2"/><rect width="7.031" height="10.42" rx="3.516" transform="translate(186.251 287.563) rotate(180)" fill="#985454"/><circle cx="7.784" cy="7.784" r="7.784" transform="translate(174.824 265.219)" fill="#985454"/><path d="M523.279,645.551v-3.389a3.484,3.484,0,0,0-.08-.737,7.784,7.784,0,0,0-3.119-14.7h.439a7.784,7.784,0,0,1,3.563,14.705,3.493,3.493,0,0,1,.08.737v3.389a3.488,3.488,0,0,1-3.957,3.488,3.528,3.528,0,0,0,3.075-3.5Z" transform="translate(-337.905 -361.501)" fill="#fff" opacity="0.2"/><path d="M505.08,690.857s15.014,1.694,15.567,0a33.191,33.191,0,0,0,0-21.343,7.784,7.784,0,0,0-7.784-7.784h0a7.784,7.784,0,0,0-7.784,7.784Z" transform="translate(-330.38 -379.06)" fill="#07f"/><path d="M498.252,720.18l-6.782,31.14h6.782l7.031-23.1s8.79,3.767,11.048,11.3,0,11.8,0,11.8h7.3l.075-.339a32.391,32.391,0,0,0-9.867-30.8h0" transform="translate(-323.552 -408.383)" fill="#263238"/><path d="M527.229,690.872a33.191,33.191,0,0,0,0-21.343,7.784,7.784,0,0,0-7.282-7.769h.5a7.784,7.784,0,0,1,7.784,7.784,33.2,33.2,0,0,1,0,21.343c-.2.608-2.252.777-4.8.752C525.5,691.594,527.06,691.395,527.229,690.872Z" transform="translate(-337.839 -379.075)" fill="#fff" opacity="0.2"/><g transform="translate(173.703 311.921)" opacity="0.2"><path d="M510.978,736.984l-6.9,22.678h-1l7.031-23.1S510.435,736.7,510.978,736.984Z" transform="translate(-503.08 -728.522)" fill="#fff"/><path d="M534.31,720.43h1a32.391,32.391,0,0,1,9.867,30.8l-.075.339h-1l.075-.339A32.391,32.391,0,0,0,534.31,720.43Z" transform="translate(-518.748 -720.43)" fill="#fff"/></g><path d="M516.459,680.306s23.371,7.43,36.317-4.983l-2.746-3.593s-25.115,5.6-31.1,1.495S516.459,680.306,516.459,680.306Z" transform="translate(-335.575 -384.077)" fill="#07f"/><path d="M552.8,678l.458.6c-12.956,12.418-36.317,4.983-36.317,4.983s-.06-.189-.149-.5C519.576,683.915,540.719,689.6,552.8,678Z" transform="translate(-336.255 -387.222)" fill="#fff" opacity="0.2"/><path d="M586.761,673.06s1.914.434,2.8-2.133-2.193-3.7-2.193-3.7-3.2,1.181-3.194,2.437S586.761,673.06,586.761,673.06Z" transform="translate(-370.058 -381.819)" fill="#985454"/><path d="M587,673.785s1.914.434,2.8-2.133a2.407,2.407,0,0,0-.224-2.173,2.442,2.442,0,0,1,.528,2.571c-.882,2.571-2.8,2.133-2.8,2.133a13.616,13.616,0,0,1-2.053-2.148A14.877,14.877,0,0,0,587,673.785Z" transform="translate(-370.6 -382.948)" fill="#fff" opacity="0.2"/><path d="M510.581,630.739l-.5,10.465H499.12v-5.556c0-11.157,11.8-15.393,18.438-6.428C517.722,629.464,510.581,630.739,510.581,630.739Z" transform="translate(-327.39 -360.318)" fill="#263238"/><path d="M517.18,624.464a11.113,11.113,0,0,1,7.943,4.819c.164.219-6.976,1.495-6.976,1.495l-.5,10.465h1.495l.5-10.465s7.141-1.276,6.976-1.495C523.942,625.664,520.424,624.219,517.18,624.464Z" transform="translate(-336.451 -360.351)" fill="#fff" opacity="0.2"/></svg>