 <svg xmlns="http://www.w3.org/2000/svg" width="1931.91" height="1165.084" viewBox="0 0 1931.91 1165.084"><g transform="translate(300.214 -531.042)"><path d="M9.342,677.78C-63.068,486.7,307.663,370.722,357.266,356.149l-2.158-1.591,765.43-188.819C1297.879,122.648,1369.147,0,1369.147,0l116.018,120.99s-197.231,71.268-251.924,241.979,251.924,308.275,251.924,308.275l-27.587.769c-108.76,16.065-660.145,94.56-1051.057,94.557C197.594,766.568,34.491,744.143,9.342,677.78Z" transform="translate(-300.214 929.556)" fill="#f3f3f3"/><g transform="translate(2310.03 741.861) rotate(49)" opacity="0.33"><path d="M266.22,626.32a38.24,38.24,0,0,0-7.5,2.14C204.78,650,205.68,791,205.68,791H189.8s-5-60.51-26.79-146.84c-19.63-77.67,60.88-147.28,77.23-160.48,1.84-1.47,2.86-2.25,2.86-2.25C324.19,511.23,266.22,626.32,266.22,626.32Z" transform="translate(-937.719 422.64)" fill="#afc0e0"/><path d="M533.76,644.18C511.92,730.51,507,791,507,791H491.09s1-147.36-56.73-163.81a31.539,31.539,0,0,0-3.81-.89s-58-115.09,23.12-144.87c0,0,.82.61,2.3,1.8C471,495.26,553.61,565.61,533.76,644.18Z" transform="translate(-937.719 422.64)" fill="#afc0e0"/><path d="M456,483.25a900.994,900.994,0,0,1-21.61,144,31.537,31.537,0,0,0-3.81-.89s-58-115.09,23.12-144.87C453.67,481.45,454.49,482.06,456,483.25Z" transform="translate(-937.719 422.64)" opacity="0.1"/><path d="M426.31,648.14q-8.4,33.14-19.69,68s-35.72,37.21-122,0c0,0-8.62-24.3-18.1-65.61-20.87-90.83-45.9-263.92,7.43-441.71A661.747,661.747,0,0,1,341.13,56.36s45.56,52.31,79,152.43S474.85,456.86,426.31,648.14Z" transform="translate(-937.719 422.64)" fill="#e3e8f4"/><circle cx="71.63" cy="71.63" r="71.63" transform="translate(-660.969 700.97)" fill="#afc0e0"/><path d="M399.18,350a50.8,50.8,0,0,1-83,39.29,51.33,51.33,0,0,1-9.52-10.33,50,50,0,0,1-3.28-5.39A50.7,50.7,0,0,1,297.59,350v-1.21a50.86,50.86,0,0,1,37-47.72,52.531,52.531,0,0,1,12.24-1.86h1.52A50.8,50.8,0,0,1,399.18,350Z" transform="translate(-937.719 422.64)" fill="#07f"/><path d="M420.12,208.79c-81.27,38.91-146.22,0-146.22,0A661.749,661.749,0,0,1,341.13,56.36S386.69,108.67,420.12,208.79Z" transform="translate(-937.719 422.64)" fill="#afc0e0"/><path d="M426.31,648.14q-5.7,22.44-12.7,45.65-3.32,11.07-7,22.32s-35.72,37.21-122,0c0,0-2.8-7.89-7-22.32-3.14-10.9-7.05-25.51-11.13-43.29,0,0,32.12,13.71,77.71,13.71a214.108,214.108,0,0,0,82.12-16.07Z" transform="translate(-937.719 422.64)" fill="#afc0e0"/><path d="M413.61,693.79q-3.32,11.07-7,22.32s-35.72,37.21-122,0c0,0-2.8-7.89-7-22.32C277.6,693.79,365.54,719.09,413.61,693.79Z" transform="translate(-937.719 422.64)" fill="#e3e8f4"/><path d="M334.62,301l-.11.08-36.9,47.64v1.21a50.7,50.7,0,0,0,5.79,23.57l43.48-74.36Z" transform="translate(-937.719 422.64)" fill="#fff" opacity="0.2"/><path d="M346.4,344l-30.22,45.25a51.329,51.329,0,0,1-9.52-10.33l36-38.64Z" transform="translate(-937.719 422.64)" fill="#fff" opacity="0.2"/><path d="M303.92,716.12s-8.62-24.31-18.1-65.61c-20.87-90.84-45.9-263.93,7.43-441.72A664.184,664.184,0,0,1,352.1,70.7c-6.77-9.49-11-14.33-11-14.33a661.683,661.683,0,0,0-67.2,152.42c-53.33,177.79-28.3,350.88-7.43,441.72,9.48,41.3,18.1,65.61,18.1,65.61,34.09,14.69,60.28,17.77,79.5,16.13C347.65,731,327.71,726.37,303.92,716.12Z" transform="translate(-937.719 422.64)" fill="#fff" opacity="0.2"/></g></g></svg>