<svg xmlns="http://www.w3.org/2000/svg" xmlns:xlink="http://www.w3.org/1999/xlink" width="491.453" height="365.509" viewBox="0 0 491.453 365.509"><defs><linearGradient id="a" x1="0.5" y1="1.198" x2="0.5" y2="-0.168" gradientUnits="objectBoundingBox"><stop offset="0" stop-color="gray" stop-opacity="0.251"/><stop offset="0.54" stop-color="gray" stop-opacity="0.122"/><stop offset="1" stop-color="gray" stop-opacity="0.102"/></linearGradient><linearGradient id="b" x1="0.5" y1="1" x2="0.5" y2="0" xlink:href="#a"/><linearGradient id="c" x1="0.5" y1="1" x2="0.5" gradientUnits="objectBoundingBox"><stop offset="0" stop-opacity="0.122"/><stop offset="0.55" stop-opacity="0.09"/><stop offset="1" stop-opacity="0.02"/></linearGradient><linearGradient id="d" x1="0.5" y1="1.001" x2="0.5" y2="0.001" xlink:href="#c"/><linearGradient id="e" x1="0.5" y1="1" x2="0.5" y2="0" xlink:href="#c"/><linearGradient id="f" x1="0.499" y1="1" x2="0.499" y2="0.001" xlink:href="#c"/><linearGradient id="g" x1="0.499" y1="1" x2="0.499" y2="0" xlink:href="#c"/><linearGradient id="h" x1="0.5" y1="1" x2="0.5" y2="0" xlink:href="#c"/></defs><g transform="translate(6.918 6.894)"><rect width="388.119" height="237.041" rx="27.5" transform="translate(-6.918 108.265) rotate(-17.26)" fill="url(#a)"/><rect width="380.204" height="228.652" rx="27.5" transform="translate(-1.13 109.048) rotate(-17.26)" fill="#fff"/><rect width="380.204" height="32.792" transform="translate(7.806 137.824) rotate(-17.26)" fill="#07f"/><rect width="96.601" height="14.18" transform="translate(82.866 277.844) rotate(-17.26)" fill="#bdbdbd"/><rect width="167.5" height="14.18" transform="translate(75.763 254.991) rotate(-17.26)" fill="#e0e0e0"/><rect width="390.309" height="237.276" rx="27.5" transform="translate(94.226 121.34)" fill="url(#b)"/><rect width="380.204" height="228.652" rx="27.5" transform="translate(98.657 123.758)" fill="#fff"/><rect width="11.08" height="31.46" transform="translate(128.344 159.65)" fill="#e0e0e0"/><rect width="11.08" height="31.46" transform="translate(142.523 159.65)" fill="#e0e0e0"/><rect width="11.08" height="31.46" transform="translate(156.703 159.65)" fill="#e0e0e0"/><rect width="11.08" height="31.46" transform="translate(181.521 159.65)" fill="#e0e0e0"/><rect width="11.08" height="31.46" transform="translate(195.701 159.65)" fill="#e0e0e0"/><rect width="11.08" height="31.46" transform="translate(209.88 159.65)" fill="#e0e0e0"/><rect width="11.08" height="31.46" transform="translate(234.692 159.65)" fill="#e0e0e0"/><rect width="11.08" height="31.46" transform="translate(248.878 159.65)" fill="#e0e0e0"/><rect width="11.08" height="31.46" transform="translate(263.058 159.65)" fill="#e0e0e0"/><rect width="11.08" height="31.46" transform="translate(287.87 159.65)" fill="#e0e0e0"/><rect width="11.08" height="31.46" transform="translate(302.049 159.65)" fill="#e0e0e0"/><rect width="11.08" height="31.46" transform="translate(316.229 159.65)" fill="#e0e0e0"/><rect width="96.601" height="14.18" transform="translate(128.344 318.286)" fill="#bdbdbd"/><rect width="167.5" height="14.18" transform="translate(128.344 294.359)" fill="#e0e0e0"/><path d="M885.029,548.578a2.333,2.333,0,0,1,2.248-2.413h3.335V526.2H860.84v22.958h24.184Z" transform="translate(-481.249 -307.913)" fill="url(#c)"/><path d="M887.281,606.015a2.333,2.333,0,0,1-2.248-2.413V603H860.85v22.958h29.766V606.015Z" transform="translate(-481.253 -343.803)" fill="url(#d)"/><rect width="24.184" height="11.98" transform="translate(379.597 244.239)" fill="url(#e)"/><path d="M927.561,603.6a2.333,2.333,0,0,1-2.248,2.413H922V625.98h29.766V603H927.582Z" transform="translate(-509.83 -343.803)" fill="url(#f)"/><path d="M922,526.2v19.965h3.335a2.333,2.333,0,0,1,2.248,2.413v.581h24.184V526.2Z" transform="translate(-509.83 -307.913)" fill="url(#g)"/><rect width="24.184" height="11.98" transform="translate(417.731 244.239)" fill="url(#h)"/><path d="M886.2,551.2a2.131,2.131,0,0,1,2.131-2.131h3.2V531.34H863.14v20.38h23.07Z" transform="translate(-482.323 -310.315)" fill="#07f"/><path d="M888.342,602.2a2.131,2.131,0,0,1-2.131-2.131v-.533H863.13v20.386h28.392V602.2Z" transform="translate(-482.319 -342.187)" fill="#07f"/><rect width="23.07" height="10.638" transform="translate(380.811 244.063)" fill="#07f"/><path d="M926.747,600.067a2.131,2.131,0,0,1-2.131,2.131h-3.2v17.728h28.392V599.55H926.747Z" transform="translate(-509.559 -342.191)" fill="#07f"/><path d="M921.43,531.34v17.727h3.2a2.131,2.131,0,0,1,2.131,2.131v.533h23.07V531.34Z" transform="translate(-509.564 -310.315)" fill="#07f"/><rect width="23.07" height="10.638" transform="translate(417.193 244.063)" fill="#07f"/></g></svg>