<svg xmlns="http://www.w3.org/2000/svg" width="375.305" height="318" viewBox="0 0 375.305 318"><circle cx="5.955" cy="5.955" r="5.955" transform="translate(295.97 14.012)" fill="#f1f1f1"/><circle cx="5.955" cy="5.955" r="5.955" transform="translate(260.861 244.441)" fill="#f1f1f1"/><circle cx="5.955" cy="5.955" r="5.955" transform="translate(112.757 71.317)" fill="#f1f1f1"/><ellipse cx="63.358" cy="9.282" rx="63.358" ry="9.282" transform="translate(0 299.437)" fill="#f1f1f1"/><path d="M366.155,619.581l15.906-4.983a58.3,58.3,0,0,0-5.941-18.965l-15.906,4.983a35.76,35.76,0,0,1,5.941,18.965Z" transform="translate(-269.328 -377.863)" fill="#07f"/><circle cx="14.851" cy="14.851" r="14.851" transform="translate(43.745 92.637)" fill="#2f2e41"/><path d="M101.325,725.114,98.5,737.221h6.86l2.825-13.721Z" transform="translate(-58.75 -431.529)" fill="#9f616a"/><path d="M187.5,727.5v11.3l6.86.807V727.5Z" transform="translate(-111.834 -433.915)" fill="#9f616a"/><path d="M235.5,464.905s.807,17.353,1.614,18.563,8.071,18.563,8.071,18.563l3.632-11.3s-5.65-9.282-4.843-14.528a60.3,60.3,0,0,0,.3-11.7Z" transform="translate(-194.943 -299.65)" fill="#9f616a"/><circle cx="11.299" cy="11.299" r="11.299" transform="translate(52.26 100.687)" fill="#9f616a"/><path d="M265.5,336.5s.4,16.142-2.421,18.563,16.142.4,16.142.4-4.036-11.3-.807-13.721S265.5,336.5,265.5,336.5Z" transform="translate(-211.219 -223.303)" fill="#9f616a"/><path d="M262.948,375.5s-2.421-4.439-5.65-4.036-13.721,1.211-14.124,2.018-1.614,3.632-2.421,4.439-6.86,2.018-7.264,6.86,14.528,34.3,14.528,34.3-2.018,6.86-1.614,8.475-2.018,6.457-1.614,8.475-6.053,14.124-2.825,29.863v25.424s-10.9,43.987-7.668,47.216,14.124,1.211,16.142,0,10.492-62.147,10.492-62.147l4.036-20.581.4,45.2s-.807,37.934,2.018,39.145,13.721,1.614,14.528-.807c.629-1.888,3.714-52.135,5.041-74.159a82.287,82.287,0,0,0-1.777-22.67c-1.68-7.618-4.118-16.569-6.9-20.2-5.246-6.86-8.475-28.652-8.475-28.652l6.86-12.51s-4.036-4.036-6.457-4.036S262.948,375.5,262.948,375.5Z" transform="translate(-193.738 -244.141)" fill="#2f2e41"/><path d="M235.225,397.5l-2.128,1.448s-1.5,25.993-.293,27.607,9.628.826,10.262-.6S235.225,397.5,235.225,397.5Z" transform="translate(-193.053 -259.687)" fill="#2f2e41"/><path d="M321.5,452.467s.4,16.949,2.825,21.792,11.3,25.02,11.3,25.02-.515,22.208,3.98,16.754,1.67-18.368,1.67-18.368L333.607,467.8s-4.036-13.317-3.632-17.353S321.5,452.467,321.5,452.467Z" transform="translate(-246.237 -290.441)" fill="#9f616a"/><path d="M324.92,795.241s.4-.323,1.614.888,4.439,2.825,4.036,7.264-2.825,5.246-2.825,5.246v-1.211h-1.211v2.018s-2.018,6.457-11.3,2.421a20.932,20.932,0,0,1,0-5.246c.4-2.018.4-11.7,1.614-11.3s4.439.807,5.246,2.421S325.324,798.792,324.92,795.241Z" transform="translate(-242.394 -496.895)" fill="#2f2e41"/><path d="M228.1,796.241s-.4-.323-1.614.888-4.439,2.825-4.036,7.264,2.825,5.246,2.825,5.246v-1.211h1.211v2.018s2.018,6.457,11.3,2.421a20.931,20.931,0,0,0,0-5.246c-.4-2.018-.4-11.7-1.614-11.3s-4.439.807-5.246,2.421S227.695,799.792,228.1,796.241Z" transform="translate(-187.138 -497.491)" fill="#2f2e41"/><path d="M320.819,392.5l5.65,1.211s0,8.878,1.614,12.51,4.439,12.107,3.228,12.51-12.51,6.053-13.317,2.825S315.17,392.5,320.819,392.5Z" transform="translate(-243.539 -256.704)" fill="#2f2e41"/><circle cx="14.851" cy="14.851" r="14.851" transform="translate(27.657 73.084)" fill="#2f2e41"/><path d="M198.757,283.846a14.852,14.852,0,0,0,22.933-7.8,14.852,14.852,0,1,1-28.97-6.09A14.846,14.846,0,0,0,198.757,283.846Z" transform="translate(-169.059 -183.615)" fill="#2f2e41"/><circle cx="10.891" cy="10.891" r="10.891" transform="translate(43.745 99.072)" fill="#2f2e41"/><ellipse cx="9.653" cy="7.549" rx="9.653" ry="7.549" transform="translate(54.141 98.33)" fill="#2f2e41"/><ellipse cx="1.832" cy="3.241" rx="1.832" ry="3.241" transform="translate(64.536 110.373)" fill="#a0616a"/><rect width="215.497" height="173.124" transform="matrix(0.958, 0.288, -0.288, 0.958, 163.925, 8.742)" fill="#f1f1f1"/><line x2="48.886" y2="19.76" transform="translate(246.638 57.261)" fill="none" stroke="#3f3d56" stroke-miterlimit="10" stroke-width="2"/><path d="M611.208,142.915l.732-.342-1.688-3.6,3.718-1.42-.289-.754-4.528,1.73Z" transform="translate(-363.327 -81.591)" fill="#3f3d56"/><path d="M722.669,186.913l-.289-.754,3.718-1.419-1.687-3.6.732-.342,2.054,4.391Z" transform="translate(-430.861 -107.833)" fill="#3f3d56"/><circle cx="4.439" cy="4.439" r="4.439" transform="translate(266.642 62.702)" fill="#3f3d56"/><line y1="27.422" x2="45.038" transform="translate(242.912 166.829)" fill="none" stroke="#3f3d56" stroke-miterlimit="10" stroke-width="2"/><path d="M604.83,476.557l.163-.791-3.9-.8,1.081-3.831-.778-.219-1.315,4.665Z" transform="translate(-357.917 -280.878)" fill="#3f3d56"/><path d="M706.816,415.5l-.778-.219,1.081-3.83-3.9-.8.163-.791,4.749.973Z" transform="translate(-419.433 -244.461)" fill="#3f3d56"/><circle cx="4.439" cy="4.439" r="4.439" transform="translate(260.992 176.101)" fill="#3f3d56"/><line x2="0.016" y2="52.729" transform="translate(186.327 107.363)" fill="none" stroke="#3f3d56" stroke-miterlimit="10" stroke-width="2"/><path d="M453.538,267.426l.591.55,2.708-2.916,2.711,2.914.591-.551-3.3-3.549Z" transform="translate(-270.511 -157.387)" fill="#3f3d56"/><path d="M453.573,389.265l.591-.551,2.71,2.914,2.709-2.916.591.55-3.3,3.55Z" transform="translate(-270.532 -231.847)" fill="#3f3d56"/><circle cx="4.439" cy="4.439" r="4.439" transform="translate(181.896 129.288)" fill="#3f3d56"/><rect width="73.447" height="91.203" transform="translate(148.911)" fill="#3f3d56"/><path d="M557.724,110.761H541.056a58.3,58.3,0,0,1,0-19.874h16.668A35.759,35.759,0,0,0,557.724,110.761Z" transform="translate(-376.682 -76.808)" fill="#ff6584"/><path d="M606.379,135.739h16.668a58.3,58.3,0,0,0,0-19.874H606.379A35.759,35.759,0,0,1,606.379,135.739Z" transform="translate(-416.152 -91.706)" fill="#07f"/><path d="M567.379,217.739h16.668a58.3,58.3,0,0,0,0-19.874H567.379a35.76,35.76,0,0,1,0,19.874Z" transform="translate(-392.891 -140.615)" fill="#07f"/><rect width="73.447" height="91.203" transform="translate(301.858 86.764)" fill="#3f3d56"/><rect width="52.462" height="2.421" transform="translate(312.35 106.135)" fill="#07f"/><rect width="52.462" height="2.421" transform="translate(312.35 114.609)" fill="#07f"/><rect width="52.462" height="2.421" transform="translate(312.35 123.084)" fill="#07f"/><rect width="52.462" height="2.421" transform="translate(312.35 131.558)" fill="#07f"/><rect width="52.462" height="2.421" transform="translate(312.35 140.033)" fill="#07f"/><rect width="27.442" height="9.685" transform="translate(324.86 148.911)" fill="#07f"/><rect width="73.447" height="91.203" transform="translate(155.368 180.388)" fill="#3f3d56"/><rect width="52.462" height="2.421" transform="translate(165.98 231.158)" fill="#07f"/><rect width="52.462" height="2.421" transform="translate(165.98 239.632)" fill="#07f"/><rect width="52.462" height="2.421" transform="translate(165.98 248.107)" fill="#07f"/><rect width="52.462" height="2.421" transform="translate(165.98 256.582)" fill="#07f"/><path d="M560.224,554.068H543.556a58.3,58.3,0,0,1,0-19.874h16.668A35.761,35.761,0,0,0,560.224,554.068Z" transform="translate(-378.173 -341.217)" fill="#07f" opacity="0.3"/><rect width="30.67" height="2.018" transform="translate(188.983 194.838)" fill="#07f" opacity="0.3"/><rect width="30.67" height="2.018" transform="translate(188.983 202.102)" fill="#07f" opacity="0.3"/><rect width="30.67" height="2.018" transform="translate(188.983 209.366)" fill="#07f" opacity="0.3"/><rect width="30.67" height="2.018" transform="translate(188.983 216.63)" fill="#07f" opacity="0.3"/></svg>