<svg xmlns="http://www.w3.org/2000/svg" width="360.344" height="280.01" viewBox="0 0 360.344 280.01"><path d="M214.369,64.911,156.979,96a14.6,14.6,0,1,1-25.663,13.9l-19.568,10.6,50.688,93.58L265.057,158.49Z" transform="translate(-109.087 -64.911)" fill="#f2f2f2"/><circle cx="11.848" cy="11.848" r="11.848" transform="translate(22.547 26.57)" fill="#07f"/><path d="M732.611,513.5l62.05-20.24a14.6,14.6,0,1,1,27.747-9.051l21.157-6.9-33-101.179L699.608,412.323Z" transform="translate(-483.222 -262.982)" fill="#f2f2f2"/><circle cx="11.848" cy="11.848" r="11.848" transform="translate(314.188 213.651)" fill="#07f"/><rect width="286.489" height="130.156" transform="translate(41.992 55.508)" fill="#3f3d56"/><rect width="277.036" height="118.159" transform="translate(46.718 60.235)" fill="#fff"/><rect width="26.904" height="9.089" transform="translate(268.674 172.758)" fill="#3f3d56"/><rect width="19.632" height="2.545" transform="translate(247.588 179.666)" fill="#07f"/><path d="M190.5,268.949H296.3l16.4,7.991,26.134,12.732,17.088-31.994h48.354" transform="translate(-121.241 -163.995)" fill="none" stroke="#3f3d56" stroke-miterlimit="10" stroke-width="2"/><path d="M304.925,288.678l7.844,18.542h19.269" transform="translate(-194.065 -183.725)" fill="none" stroke="#3f3d56" stroke-miterlimit="10" stroke-width="2"/><path d="M385.807,263.221,412.6,248.678H431.5" transform="translate(-245.541 -158.267)" fill="none" stroke="#3f3d56" stroke-miterlimit="10" stroke-width="2"/><circle cx="3.272" cy="3.272" r="3.272" transform="translate(107.433 101.681)" fill="#07f"/><circle cx="3.272" cy="3.272" r="3.272" transform="translate(137.973 101.681)" fill="#07f"/><path d="M526.5,310.678l2.181,32.357h18.905" transform="translate(-335.083 -197.726)" fill="none" stroke="#3f3d56" stroke-miterlimit="10" stroke-width="2"/><path d="M590.278,264.781l-20.778-16.1h19.632" transform="translate(-362.45 -158.267)" fill="none" stroke="#3f3d56" stroke-miterlimit="10" stroke-width="2"/><path d="M721.051,257.678l20.159,16h18.905" transform="translate(-458.902 -163.995)" fill="none" stroke="#3f3d56" stroke-miterlimit="10" stroke-width="2"/><circle cx="3.272" cy="3.272" r="3.272" transform="translate(188.145 109.679)" fill="#07f"/><circle cx="3.272" cy="3.272" r="3.272" transform="translate(258.676 90.411)" fill="#07f"/><circle cx="3.272" cy="3.272" r="3.272" transform="translate(224.501 103.135)" fill="#07f"/><line x2="18.905" transform="translate(119.067 126.403)" fill="none" stroke="#3f3d56" stroke-miterlimit="10" stroke-width="2"/><path d="M615.93,322.589Z" transform="translate(-429.967 -228.906)" fill="none" stroke="#3f3d56" stroke-miterlimit="10" stroke-width="2"/><path d="M727.93,321.589Z" transform="translate(-501.247 -228.27)" fill="none" stroke="#3f3d56" stroke-miterlimit="10" stroke-width="2"/><path d="M727.93,329.589Z" transform="translate(-501.247 -233.361)" fill="none" stroke="#3f3d56" stroke-miterlimit="10" stroke-width="2"/><path d="M932.93,374.589Z" transform="translate(-631.717 -262.001)" fill="none" stroke="#3f3d56" stroke-miterlimit="10" stroke-width="2"/><path d="M913.93,382.589Z" transform="translate(-619.624 -267.093)" fill="none" stroke="#3f3d56" stroke-miterlimit="10" stroke-width="2"/><path d="M688.93,472.589Z" transform="translate(-476.426 -324.372)" fill="none" stroke="#3f3d56" stroke-miterlimit="10" stroke-width="2"/><circle cx="5.365" cy="5.365" r="5.365" transform="translate(288.956 22.095)" fill="none" stroke="#3f3d56" stroke-miterlimit="10" stroke-width="2"/><ellipse cx="55.262" cy="10.18" rx="55.262" ry="10.18" transform="translate(0 259.65)" fill="#f2f2f2"/><path d="M239.131,493.658l-9.859,4.974.638,1.271,9.858-4.974Z" transform="translate(-145.917 -314.181)" fill="#07f"/><path d="M343.62,532.347,343.177,535s.664,18.381-4.208,12.623-1.55-13.509-1.55-13.509l1.329-2.215Z" transform="translate(-252.009 -362.122)" fill="#fbbebe"/><path d="M276.082,299.221s-.886,9.3-1.329,9.744,6.644,8.858,6.644,8.858l6.2-5.758s-.443-8.415.886-10.187S276.082,299.221,276.082,299.221Z" transform="translate(-212.817 -214.034)" fill="#fbbebe"/><path d="M276.082,299.221s-.886,9.3-1.329,9.744,6.644,8.858,6.644,8.858l6.2-5.758s-.443-8.415.886-10.187S276.082,299.221,276.082,299.221Z" transform="translate(-212.817 -214.034)" opacity="0.1"/><path d="M115.758,698.568v7.972l-3.1.443-4.429-1.329,1.328-8.415Z" transform="translate(-68.881 -443.748)" fill="#3f3d56"/><path d="M198.425,771.275s-1.329-3.543-3.543-3.1-2.657,3.1-2.657,3.1-1.772,6.644-4.429,8.858-5.315,7.972,0,8.858,9.744-1.329,9.744-1.772a5.377,5.377,0,0,1,3.543-3.543c2.215-.443,3.986-.886,3.986-2.657a6.989,6.989,0,0,0-1.329-3.543s-.443-8.4-1.329-7.3a8.81,8.81,0,0,0-1.329,2.872Z" transform="translate(-155.533 -512.468)" fill="#2f2e41"/><path d="M178.222,689.155,176.45,695.8l4.429.886,2.214-2.214.443-5.758Z" transform="translate(-112.299 -438.321)" fill="#3f3d56"/><path d="M277.556,762.925s1.772-1.329,2.657-1.329h1.329s0-3.1,2.215-3.1,1.772,2.215,1.772,2.215,4.872,7.529,6.2,8.858,8.415,5.315,2.657,7.087-9.744,1.772-12.4-1.329A13.051,13.051,0,0,0,277.556,774c-1.772,0-3.986-.886-3.986-2.214A13.384,13.384,0,0,1,274.9,767.8s.886-7.972,1.329-7.087S277.556,762.925,277.556,762.925Z" transform="translate(-212.077 -506.333)" fill="#2f2e41"/><path d="M214.984,474.647v14.616s-4.872,28.346-4.872,37.647-7.529,53.592-3.986,54.478,11.958,2.215,12.4.886,3.543-43.4,3.986-43.848,9.744-35.433,9.744-35.433l1.772.443.886,39.862s-4.429,35.875-2.215,35.875,11.516-.443,11.516-3.1,4.872-51.82,4.872-51.82,5.758-38.976,3.543-42.962-2.215-6.2-2.215-6.2Z" transform="translate(-168.549 -325.682)" fill="#2f2e41"/><circle cx="8.858" cy="8.858" r="8.858" transform="translate(61.715 74.336)" fill="#fbbebe"/><path d="M240.34,324.527s-5.536-4.651-5.979-6.422c0,0-2.879,2.879-2.879,3.322s-12.4,1.772-15.5,5.315-5.758,11.073-5.758,11.073l7.529,14.173s.443,7.972.443,8.858-2.215,15.059-1.329,15.5,9.744,4.872,17.273,3.986,15.059-2.215,17.273-2.215,3.986.886,3.986,0-1.329-2.657-1.329-3.543-.443-3.1-.443-4.429-.886-3.543-.886-5.315,9.744-25.689,9.744-25.689a14.1,14.1,0,0,0-7.529-11.073c-7.087-3.543-7.972-4.872-7.972-4.872s-.138-2.657-.512-2.657-1.7,3.986-5.246,4.429Z" transform="translate(-171.76 -226.052)" fill="#d0cde1"/><path d="M122.847,426.68l3.1,4.872,7.972-1.772-5.758-6.643Z" transform="translate(-78.184 -269.299)" fill="#fbbebe"/><path d="M329.607,366.224l2.657,3.543s5.315,25.689,4.429,34.99-1.772,16.388-1.772,16.388,1.772,6.644.443,6.644-9.3.443-9.3-.886.886-9.744.886-9.744l-2.214-19.488-4.872-6.644Z" transform="translate(-241.539 -256.677)" fill="#d0cde1"/><path d="M269.356,258.664a7.674,7.674,0,0,1,1.752-.142c.683-.115,1.294-.621,1.983-.557a3.812,3.812,0,0,1,.944.307,1.233,1.233,0,0,0,.967.035.55.55,0,0,0,.21-.826,2.734,2.734,0,0,0,1.573-.677,1.175,1.175,0,0,1,.3-.225.98.98,0,0,1,.772.12l1.013.467a1.282,1.282,0,0,1,.579.414c.121.188.144.441.315.585.218.184.544.094.828.112a1.059,1.059,0,0,1,.956,1.032c0,.3-.112.662.123.844.136.106.33.089.49.154.414.168.416.745.355,1.188s-.031,1.027.395,1.164c.3.1.606-.109.918-.154a2.262,2.262,0,0,1,1.323.45,1.228,1.228,0,0,0,1.337.07,1.26,1.26,0,0,0,.223-1.24,6.83,6.83,0,0,0-.65-1.777,1.128,1.128,0,0,1-.188-.553,1,1,0,0,1,.465-.676,3.08,3.08,0,0,0,1.268-1.445,6.173,6.173,0,0,0,0-1.432,8.425,8.425,0,0,0,.136-1.737c-.2-1.039-1.354-1.539-2.1-2.288-1.026-1.03-1.359-2.676-2.57-3.48-.969-.643-2.235-.567-3.338-.935-1.212-.4-2.187-1.333-3.382-1.784a4.713,4.713,0,0,0-4.006.351,4.009,4.009,0,0,1-1.178.6,4.234,4.234,0,0,1-1.072-.012,4.138,4.138,0,0,0-2.044.422,1.143,1.143,0,0,0-.573.5c-.214.475.1,1.218-.372,1.445-.219.106-.477,0-.72.01a1.378,1.378,0,0,0-1.061.837,4.011,4.011,0,0,1-.743,1.2c-.577.506-1.627.589-1.777,1.342a7.32,7.32,0,0,0,.054.953c-.044.667-.757,1.174-.72,1.841.043.77,1.021,1.146,1.282,1.871a2.717,2.717,0,0,1-.243,1.708,1.48,1.48,0,0,0,.231,1.632c.183.14.417.2.6.333.482.35.476,1.057.422,1.651a.776.776,0,0,0,.175.707.654.654,0,0,0,.535.064,2.185,2.185,0,0,0,1.383-1.041c.155-.256.186-.483.468-.619.191-.092.423-.01.618-.13C268.538,260.772,268.219,259.146,269.356,258.664Z" transform="translate(-204.799 -179.771)" fill="#2f2e41"/><path d="M201.3,368.661l-1.329,1.329s-7.972,23.917-5.315,29.232,7.972,18.6,9.744,18.159,7.972-4.429,7.972-4.872-7.529-12.844-7.529-12.844-.886-2.657-.443-3.1.443,0,0-.886-.443,0,.443-.886.886-.886.886-1.329,2.657-11.516,2.657-11.516Z" transform="translate(-161.506 -258.228)" fill="#d0cde1"/><path d="M128.329,441.465l9.744-3.1,1.328,3.1-10.63,2.214Z" transform="translate(-81.673 -278.991)" fill="#2f2e41"/><path d="M128.329,441.465l9.744-3.1,1.328,3.1-10.63,2.214Z" transform="translate(-81.673 -278.991)" opacity="0.1"/><path d="M164.876,262.939l7.529,6.2.886-1.329Z" transform="translate(-104.933 -167.344)" opacity="0.1"/><path d="M196.993,267.812l-5.315,3.1.443,1.329Z" transform="translate(-121.991 -170.445)" opacity="0.1"/></svg>